<?xml version="1.0" encoding="UTF-8"?>
<svg version="1.1" xmlns="http://www.w3.org/2000/svg" width="500" height="500">
<path d="M0 0 C3.25568578 2.89470352 6.32642137 5.93963649 9.3671875 9.05859375 C9.98078125 9.67476562 10.594375 10.2909375 11.2265625 10.92578125 C27.31508627 28.31176661 32.24349506 50.27899967 31.72265625 73.1796875 C31.23745739 84.05199563 28.44031623 94.40555714 23.3671875 104.05859375 C22.9134375 104.950625 22.4596875 105.84265625 21.9921875 106.76171875 C18.99356855 112.47783612 15.84892849 118.34736602 11.3671875 123.05859375 C10.7071875 123.05859375 10.0471875 123.05859375 9.3671875 123.05859375 C9.3671875 123.71859375 9.3671875 124.37859375 9.3671875 125.05859375 C8.7071875 125.05859375 8.0471875 125.05859375 7.3671875 125.05859375 C6.7071875 126.37859375 6.0471875 127.69859375 5.3671875 129.05859375 C4.7071875 129.05859375 4.0471875 129.05859375 3.3671875 129.05859375 C3.3671875 130.70859375 3.3671875 132.35859375 3.3671875 134.05859375 C3.89699219 134.2596875 4.42679688 134.46078125 4.97265625 134.66796875 C8.4291931 136.67535394 10.91856822 139.44549113 13.6796875 142.30859375 C18.0764341 146.79412614 22.48996703 151.08876314 27.3671875 155.05859375 C27.0371875 156.70859375 26.7071875 158.35859375 26.3671875 160.05859375 C16.28132182 162.07576689 6.198866 159.57199612 -3.6328125 157.05859375 C4.68154013 168.91618623 4.68154013 168.91618623 15.3671875 178.05859375 C15.3671875 178.71859375 15.3671875 179.37859375 15.3671875 180.05859375 C15.9240625 180.30609375 16.4809375 180.55359375 17.0546875 180.80859375 C19.79129663 182.28784193 22.04369619 183.99326814 24.3671875 186.05859375 C24.3671875 186.71859375 24.3671875 187.37859375 24.3671875 188.05859375 C25.08261719 188.30351562 25.79804688 188.5484375 26.53515625 188.80078125 C29.71301871 190.21219051 32.00365749 191.97140894 34.6796875 194.18359375 C35.56269531 194.90804687 36.44570313 195.6325 37.35546875 196.37890625 C38.01933594 196.93320312 38.68320312 197.4875 39.3671875 198.05859375 C38.4921875 201.93359375 38.4921875 201.93359375 37.3671875 203.05859375 C10.75008215 204.61200506 -14.57496488 198.31035477 -39.6328125 190.05859375 C-39.15900621 194.49668335 -38.6778551 198.93394621 -38.1953125 203.37109375 C-38.06060547 204.63373047 -37.92589844 205.89636719 -37.78710938 207.19726562 C-37.65498047 208.40576172 -37.52285156 209.61425781 -37.38671875 210.859375 C-37.26627197 211.97481689 -37.1458252 213.09025879 -37.02172852 214.23950195 C-36.71077093 217.13073575 -36.71077093 217.13073575 -35.6328125 220.05859375 C-35.56540385 221.61977803 -35.54766794 223.18361895 -35.5703125 224.74609375 C-35.57933594 225.55433594 -35.58835937 226.36257813 -35.59765625 227.1953125 C-35.60925781 227.81019531 -35.62085938 228.42507813 -35.6328125 229.05859375 C-38.53506801 230.50972151 -41.08192484 230.18844534 -44.3203125 230.19140625 C-45.30777466 230.19284134 -45.30777466 230.19284134 -46.31518555 230.19430542 C-47.70719498 230.194986 -49.0992076 230.19314021 -50.49121094 230.18896484 C-52.62442133 230.18361479 -54.75742117 230.18891387 -56.890625 230.1953125 C-58.24218797 230.1946517 -59.5937508 230.19337049 -60.9453125 230.19140625 C-62.79576172 230.18971436 -62.79576172 230.18971436 -64.68359375 230.18798828 C-67.6328125 230.05859375 -67.6328125 230.05859375 -69.6328125 229.05859375 C-69.78997476 224.26514473 -69.70047461 219.88953977 -68.7578125 215.18359375 C-67.09796642 206.89621939 -66.45138079 198.46198098 -65.6328125 190.05859375 C-66.29635742 190.31181396 -66.95990234 190.56503418 -67.64355469 190.82592773 C-91.39622958 199.70300085 -117.2344806 204.55600107 -142.6328125 203.05859375 C-143.6328125 202.05859375 -143.6328125 202.05859375 -143.6953125 199.49609375 C-143.664375 198.28953125 -143.664375 198.28953125 -143.6328125 197.05859375 C-141.1578125 196.06859375 -141.1578125 196.06859375 -138.6328125 195.05859375 C-138.6328125 194.39859375 -138.6328125 193.73859375 -138.6328125 193.05859375 C-137.09578193 191.85135911 -135.49946681 190.71941398 -133.8828125 189.62109375 C-124.08054204 182.65367015 -111.05859847 172.91016569 -105.6328125 162.05859375 C-104.9728125 162.05859375 -104.3128125 162.05859375 -103.6328125 162.05859375 C-102.9728125 160.40859375 -102.3128125 158.75859375 -101.6328125 157.05859375 C-102.92251953 157.36603516 -102.92251953 157.36603516 -104.23828125 157.6796875 C-126.62397806 162.78177107 -126.62397806 162.78177107 -132.6328125 159.05859375 C-132.3828125 156.68359375 -132.3828125 156.68359375 -131.6328125 154.05859375 C-129.5703125 152.74609375 -129.5703125 152.74609375 -127.6328125 152.05859375 C-127.6328125 151.39859375 -127.6328125 150.73859375 -127.6328125 150.05859375 C-125.98828125 148.4375 -125.98828125 148.4375 -123.8203125 146.62109375 C-120.80817985 144.08520043 -120.80817985 144.08520043 -117.99609375 141.3359375 C-116.6328125 140.05859375 -116.6328125 140.05859375 -114.6328125 140.05859375 C-114.6328125 139.39859375 -114.6328125 138.73859375 -114.6328125 138.05859375 C-113.9728125 138.05859375 -113.3128125 138.05859375 -112.6328125 138.05859375 C-112.6328125 137.39859375 -112.6328125 136.73859375 -112.6328125 136.05859375 C-111.9728125 136.05859375 -111.3128125 136.05859375 -110.6328125 136.05859375 C-110.6328125 135.39859375 -110.6328125 134.73859375 -110.6328125 134.05859375 C-109.9728125 134.05859375 -109.3128125 134.05859375 -108.6328125 134.05859375 C-108.6328125 132.40859375 -108.6328125 130.75859375 -108.6328125 129.05859375 C-109.4990625 128.68734375 -109.4990625 128.68734375 -110.3828125 128.30859375 C-112.96221229 126.87559387 -114.69402842 125.27434699 -116.6328125 123.05859375 C-116.6328125 122.39859375 -116.6328125 121.73859375 -116.6328125 121.05859375 C-117.2928125 121.05859375 -117.9528125 121.05859375 -118.6328125 121.05859375 C-134.64646376 100.35492853 -139.20277269 77.13469463 -136.3515625 51.53320312 C-133.13371873 30.85490026 -119.44707827 10.28423741 -102.8359375 -2.01171875 C-100.14999392 -3.76441075 -97.43526449 -5.38267018 -94.6328125 -6.94140625 C-93.82199219 -7.40160156 -93.01117188 -7.86179688 -92.17578125 -8.3359375 C-64.16359046 -23.31499267 -24.72365368 -20.85848216 0 0 Z " fill="#6C704A" transform="translate(302.6328125,143.94140625)"/>
<path d="M0 0 C3.25568578 2.89470352 6.32642137 5.93963649 9.3671875 9.05859375 C9.98078125 9.67476562 10.594375 10.2909375 11.2265625 10.92578125 C27.31508627 28.31176661 32.24349506 50.27899967 31.72265625 73.1796875 C31.23745739 84.05199563 28.44031623 94.40555714 23.3671875 104.05859375 C22.9134375 104.950625 22.4596875 105.84265625 21.9921875 106.76171875 C18.99356855 112.47783612 15.84892849 118.34736602 11.3671875 123.05859375 C10.7071875 123.05859375 10.0471875 123.05859375 9.3671875 123.05859375 C9.3671875 123.71859375 9.3671875 124.37859375 9.3671875 125.05859375 C8.7071875 125.05859375 8.0471875 125.05859375 7.3671875 125.05859375 C6.7071875 126.37859375 6.0471875 127.69859375 5.3671875 129.05859375 C4.7071875 129.05859375 4.0471875 129.05859375 3.3671875 129.05859375 C3.0371875 130.04859375 2.7071875 131.03859375 2.3671875 132.05859375 C-2.61862649 128.01770578 -6.93328045 123.70866685 -11.0703125 118.80859375 C-11.61107422 118.1846875 -12.15183594 117.56078125 -12.70898438 116.91796875 C-16.6328125 112.31453955 -16.6328125 112.31453955 -16.6328125 110.05859375 C-17.2928125 110.05859375 -17.9528125 110.05859375 -18.6328125 110.05859375 C-19.2928125 108.73859375 -19.9528125 107.41859375 -20.6328125 106.05859375 C-16.02891695 106.49705999 -11.6221852 107.0046889 -7.1328125 108.12109375 C-2.55456826 109.2111519 1.67219452 109.20764115 6.3671875 109.05859375 C4.94197514 104.5528548 2.71098228 102.06351923 -0.6484375 98.78515625 C-1.1418866 98.29832367 -1.63533569 97.81149109 -2.14373779 97.30990601 C-3.71644404 95.76048924 -5.29894946 94.22159669 -6.8828125 92.68359375 C-20.40805715 79.46336698 -20.40805715 79.46336698 -24.6328125 74.05859375 C-24.6328125 73.39859375 -24.6328125 72.73859375 -24.6328125 72.05859375 C-25.2928125 72.05859375 -25.9528125 72.05859375 -26.6328125 72.05859375 C-28.32421875 70.16015625 -28.32421875 70.16015625 -30.1953125 67.68359375 C-30.81535156 66.87148437 -31.43539062 66.059375 -32.07421875 65.22265625 C-33.6328125 63.05859375 -33.6328125 63.05859375 -34.6328125 61.05859375 C-33.17401141 61.19967122 -31.71577699 61.3466179 -30.2578125 61.49609375 C-29.03964844 61.61791016 -29.03964844 61.61791016 -27.796875 61.7421875 C-25.6328125 62.05859375 -25.6328125 62.05859375 -23.6328125 63.05859375 C-21.76224459 63.28609525 -19.88595292 63.46822186 -18.0078125 63.62109375 C-17.00492187 63.70488281 -16.00203125 63.78867188 -14.96875 63.875 C-14.19789063 63.93558594 -13.42703125 63.99617188 -12.6328125 64.05859375 C-13.1896875 63.00671875 -13.7465625 61.95484375 -14.3203125 60.87109375 C-14.63355469 60.27941406 -14.94679688 59.68773437 -15.26953125 59.078125 C-16.65031379 56.88787384 -16.65031379 56.88787384 -18.984375 54.75 C-21.88290907 51.80443956 -24.09515673 48.63916702 -26.3203125 45.18359375 C-27.19771499 43.84361792 -28.07532506 42.503778 -28.953125 41.1640625 C-29.61876465 40.1419165 -29.61876465 40.1419165 -30.29785156 39.09912109 C-31.58229438 37.1358122 -32.88099272 35.18305529 -34.1875 33.234375 C-34.60281982 32.6148999 -35.01813965 31.9954248 -35.44604492 31.35717773 C-36.27617456 30.12050034 -37.1070618 28.88433114 -37.9387207 27.64868164 C-40.06596806 24.47103506 -42.13229086 21.27027414 -44.12109375 18.00390625 C-44.52255615 17.35236572 -44.92401855 16.7008252 -45.33764648 16.02954102 C-46.10079598 14.78490517 -46.8522476 13.53299781 -47.59008789 12.27319336 C-48.70363344 10.39262926 -48.70363344 10.39262926 -50.6328125 8.05859375 C-51.9528125 8.05859375 -53.2728125 8.05859375 -54.6328125 8.05859375 C-56.05215044 9.4575461 -56.05215044 9.4575461 -57.12109375 11.44140625 C-57.57250732 12.18592041 -58.0239209 12.93043457 -58.48901367 13.69750977 C-59.20988159 14.92812134 -59.20988159 14.92812134 -59.9453125 16.18359375 C-61.00696647 17.92658536 -62.07222947 19.66738258 -63.140625 21.40625 C-63.98608887 22.78707764 -63.98608887 22.78707764 -64.84863281 24.19580078 C-79.54567171 47.77783118 -79.54567171 47.77783118 -88.99609375 57.15625 C-90.8610396 59.3238601 -91.71400037 61.36745365 -92.6328125 64.05859375 C-91.715 63.92582031 -90.7971875 63.79304688 -89.8515625 63.65625 C-83.45108819 62.73517334 -77.05324302 61.82904541 -70.6328125 61.05859375 C-77.76326711 70.96200293 -85.60526857 80.12727004 -94.26953125 88.71484375 C-94.76502472 89.20612762 -95.26051819 89.6974115 -95.77102661 90.20358276 C-98.27712967 92.68146429 -100.79582677 95.14516051 -103.33007812 97.59423828 C-104.25884766 98.50286621 -105.18761719 99.41149414 -106.14453125 100.34765625 C-106.98459717 101.15928223 -107.82466309 101.9709082 -108.69018555 102.80712891 C-110.58900539 105.0078222 -111.26745154 106.21942617 -111.6328125 109.05859375 C-105.93524423 109.21845818 -100.87893547 108.69810004 -95.3203125 107.49609375 C-88.03603156 105.9241874 -88.03603156 105.9241874 -84.6328125 107.05859375 C-91.82672718 115.52565828 -99.09902217 123.89143167 -106.6328125 132.05859375 C-107.2928125 131.72859375 -107.9528125 131.39859375 -108.6328125 131.05859375 C-108.6328125 130.39859375 -108.6328125 129.73859375 -108.6328125 129.05859375 C-109.4990625 128.68734375 -109.4990625 128.68734375 -110.3828125 128.30859375 C-112.96221229 126.87559387 -114.69402842 125.27434699 -116.6328125 123.05859375 C-116.6328125 122.39859375 -116.6328125 121.73859375 -116.6328125 121.05859375 C-117.2928125 121.05859375 -117.9528125 121.05859375 -118.6328125 121.05859375 C-134.64646376 100.35492853 -139.20277269 77.13469463 -136.3515625 51.53320312 C-133.13371873 30.85490026 -119.44707827 10.28423741 -102.8359375 -2.01171875 C-100.14999392 -3.76441075 -97.43526449 -5.38267018 -94.6328125 -6.94140625 C-93.82199219 -7.40160156 -93.01117188 -7.86179688 -92.17578125 -8.3359375 C-64.16359046 -23.31499267 -24.72365368 -20.85848216 0 0 Z " fill="#F6DF97" transform="translate(302.6328125,143.94140625)"/>
<path d="M0 0 C-1.9115934 2.27527705 -3.82895768 4.54522331 -5.75 6.8125 C-6.28882813 7.45509766 -6.82765625 8.09769531 -7.3828125 8.75976562 C-10.04551111 11.89330729 -12.52373743 14.73030429 -16 17 C-15.34 15.02 -14.68 13.04 -14 11 C-13.34 11 -12.68 11 -12 11 C-12 8.69 -12 6.38 -12 4 C-15.3 3.67 -18.6 3.34 -22 3 C-22 2.67 -22 2.34 -22 2 C-20.58847656 1.80083984 -20.58847656 1.80083984 -19.1484375 1.59765625 C-17.90320313 1.42105469 -16.65796875 1.24445313 -15.375 1.0625 C-13.53035156 0.80146484 -13.53035156 0.80146484 -11.6484375 0.53515625 C-9.31318703 0.19261951 -6.98344378 -0.19164584 -4.6640625 -0.62890625 C-2 -1 -2 -1 0 0 Z " fill="#EBDB98" transform="translate(232,206)"/>
<path d="M0 0 C6.14154225 0.58490879 12.00679849 1.54066252 18 3 C16.38405168 5.04119788 14.7143618 7.04072937 13 9 C12.34 9 11.68 9 11 9 C10.67 9.99 10.34 10.98 10 12 C5.125 7.375 5.125 7.375 4 4 C3.34 4 2.68 4 2 4 C1.34 2.68 0.68 1.36 0 0 Z " fill="#EADC9A" transform="translate(282,250)"/>
<path d="M0 0 C0.66 0.33 1.32 0.66 2 1 C1.67 1.99 1.34 2.98 1 4 C1.66 4 2.32 4 3 4 C3 5.32 3 6.64 3 8 C6.96 8.33 10.92 8.66 15 9 C15 9.33 15 9.66 15 10 C11.85418577 10.02888514 8.70840531 10.04675923 5.5625 10.0625 C4.21575195 10.07506836 4.21575195 10.07506836 2.84179688 10.08789062 C1.56079102 10.09272461 1.56079102 10.09272461 0.25390625 10.09765625 C-0.53685303 10.10289307 -1.3276123 10.10812988 -2.14233398 10.11352539 C-4 10 -4 10 -5 9 C-5.04063832 7.33382885 -5.042721 5.66611905 -5 4 C-3.35 3.34 -1.7 2.68 0 2 C0 1.34 0 0.68 0 0 Z " fill="#878962" transform="translate(164,337)"/>
<path d="M0 0 C1.13671875 1.56640625 1.13671875 1.56640625 2 4 C1.20703125 7.27734375 1.20703125 7.27734375 -0.1875 10.9375 C-0.63480469 12.14277344 -1.08210938 13.34804687 -1.54296875 14.58984375 C-2.83302141 17.60918953 -4.11077926 20.31638995 -6 23 C-6.66 23 -7.32 23 -8 23 C-5.46272494 14.7403599 -5.46272494 14.7403599 -3.4375 11.5 C-1.35850403 7.88435483 -0.75394127 4.07128284 0 0 Z " fill="#F2E6A5" transform="translate(330,229)"/>
<path d="M0 0 C0.66 0 1.32 0 2 0 C0.44633255 4.97173583 -2.49754 9.18561608 -6 13 C-6.99 13.33 -7.98 13.66 -9 14 C-9 13.34 -9 12.68 -9 12 C-8.34 12 -7.68 12 -7 12 C-6.67 9.36 -6.34 6.72 -6 4 C-5.38125 3.896875 -4.7625 3.79375 -4.125 3.6875 C-1.63473516 3.12474627 -1.63473516 3.12474627 0 0 Z " fill="#F3E5A7" transform="translate(320,254)"/>
<path d="M0 0 C3.40597755 1.13532585 3.53452572 1.48116822 5.0625 4.5 C6.42445528 7.33019068 6.42445528 7.33019068 9 9 C9.625 12.0625 9.625 12.0625 10 15 C9.01 15.495 9.01 15.495 8 16 C5.36 10.72 2.72 5.44 0 0 Z " fill="#F2E5A6" transform="translate(171,242)"/>
<path d="M0 0 C1.32 0.33 2.64 0.66 4 1 C2.02 3.97 0.04 6.94 -2 10 C-2.66 9.67 -3.32 9.34 -4 9 C-3.7525 8.1028125 -3.7525 8.1028125 -3.5 7.1875 C-2.8885876 4.88655664 -2.8885876 4.88655664 -3 2 C-2.01 1.34 -1.02 0.68 0 0 Z " fill="#EADC9A" transform="translate(221,186)"/>
<path d="M0 0 C0.66 1.32 1.32 2.64 2 4 C1.3503125 4.804375 1.3503125 4.804375 0.6875 5.625 C-1.20687603 8.29115885 -2.59312806 11.05226832 -4 14 C-4.33 13.34 -4.66 12.68 -5 12 C-5.66 11.67 -6.32 11.34 -7 11 C-4.69 7.37 -2.38 3.74 0 0 Z " fill="#757345" transform="translate(243,158)"/>
<path d="M0 0 C0 3 0 3 -1 6 C-2.70703125 7.5703125 -2.70703125 7.5703125 -4.8125 9.125 C-5.49957031 9.64320313 -6.18664062 10.16140625 -6.89453125 10.6953125 C-8.96720245 11.97967647 -10.61798332 12.56106659 -13 13 C-9.57338216 8.28840047 -5.40481284 4.74963472 -1 1 C-0.67 0.67 -0.34 0.34 0 0 Z " fill="#8B8D66" transform="translate(186,319)"/>
<path d="M0 0 C0.99 0.33 1.98 0.66 3 1 C-1.62 5.62 -6.24 10.24 -11 15 C-11.33 14.01 -11.66 13.02 -12 12 C-10 9 -10 9 -7.6875 7.6875 C-4.29419163 5.556818 -2.45309429 3.15397838 0 0 Z " fill="#EBDEA0" transform="translate(203,234)"/>
<path d="M0 0 C2.97 0.33 5.94 0.66 9 1 C8.34 1.66 7.68 2.32 7 3 C7.99 5.31 8.98 7.62 10 10 C9.01 10.495 9.01 10.495 8 11 C6.85204994 9.5433323 5.70670581 8.08461063 4.5625 6.625 C3.60537109 5.40683594 3.60537109 5.40683594 2.62890625 4.1640625 C1 2 1 2 0 0 Z " fill="#DED397" transform="translate(268,205)"/>
<path d="M0 0 C3.24271506 0.5590888 4.93057424 1.4132178 7 4 C7 4.66 7 5.32 7 6 C8.65 6 10.3 6 12 6 C11.34 7.32 10.68 8.64 10 10 C9.34 9.67 8.68 9.34 8 9 C8 8.34 8 7.68 8 7 C7.4225 6.773125 6.845 6.54625 6.25 6.3125 C3.4336339 4.66961977 1.91922886 2.60466773 0 0 Z " fill="#F1E6A7" transform="translate(186,266)"/>
<path d="M0 0 C1.65 0.33 3.3 0.66 5 1 C5.33 2.32 5.66 3.64 6 5 C4.824375 5.2165625 4.824375 5.2165625 3.625 5.4375 C1.03578982 5.87798925 1.03578982 5.87798925 -1 7 C-1.625 5.1875 -1.625 5.1875 -2 3 C-1.34 2.01 -0.68 1.02 0 0 Z " fill="#6B6C3E" transform="translate(248,151)"/>
<path d="M0 0 C0.66 0.66 1.32 1.32 2 2 C1.071875 2.8971875 1.071875 2.8971875 0.125 3.8125 C-2.13676954 6.00811144 -2.13676954 6.00811144 -4 9 C-5.32 8.34 -6.64 7.68 -8 7 C-5.36 4.69 -2.72 2.38 0 0 Z " fill="#F3E5A5" transform="translate(200,142)"/>
<path d="M0 0 C1.65 0.99 3.3 1.98 5 3 C4.34 4.32 3.68 5.64 3 7 C0.69 6.67 -1.62 6.34 -4 6 C-3.525625 5.566875 -3.05125 5.13375 -2.5625 4.6875 C-0.76313043 2.97690387 -0.76313043 2.97690387 0 0 Z " fill="#777B56" transform="translate(332,335)"/>
<path d="M0 0 C2.46800047 1.15173355 4.04783565 2.04783565 6 4 C6 5.32 6 6.64 6 8 C3.04335481 9.4783226 0.25770263 9.06032783 -3 9 C-3 8.67 -3 8.34 -3 8 C-1.02 7.67 0.96 7.34 3 7 C3 5.68 3 4.36 3 3 C1.68 2.67 0.36 2.34 -1 2 C-0.67 1.34 -0.34 0.68 0 0 Z " fill="#726F3E" transform="translate(303,245)"/>
<path d="M0 0 C0.99 0.33 1.98 0.66 3 1 C3.33 2.65 3.66 4.3 4 6 C1.03 5.505 1.03 5.505 -2 5 C-1.34 3.35 -0.68 1.7 0 0 Z " fill="#686C3F" transform="translate(277,201)"/>
<path d="M0 0 C1.32 0.33 2.64 0.66 4 1 C4.33 2.65 4.66 4.3 5 6 C5.99 6.33 6.98 6.66 8 7 C7.01 7.66 6.02 8.32 5 9 C4.16094435 7.87926138 3.32892169 6.75325453 2.5 5.625 C2.0359375 4.99851563 1.571875 4.37203125 1.09375 3.7265625 C0 2 0 2 0 0 Z " fill="#ECDC9D" transform="translate(272,181)"/>
<path d="M0 0 C1.32 0.33 2.64 0.66 4 1 C4 2.32 4 3.64 4 5 C-0.625 7.125 -0.625 7.125 -4 6 C-3.34 5.566875 -2.68 5.13375 -2 4.6875 C-1.01 3.8521875 -1.01 3.8521875 0 3 C0 2.01 0 1.02 0 0 Z " fill="#81835D" transform="translate(233,329)"/>
<path d="M0 0 C2.0625 2.3125 2.0625 2.3125 4 5 C3.67 5.99 3.34 6.98 3 8 C1.68 8 0.36 8 -1 8 C-0.67 5.36 -0.34 2.72 0 0 Z " fill="#74784C" transform="translate(260,164)"/>
<path d="M0 0 C-1.65 1.65 -3.3 3.3 -5 5 C-5.12375 4.360625 -5.2475 3.72125 -5.375 3.0625 C-5.684375 2.0415625 -5.684375 2.0415625 -6 1 C-6.66 0.67 -7.32 0.34 -8 0 C-4.71303767 -0.79953138 -3.28976808 -1.09658936 0 0 Z " fill="#E3DB9E" transform="translate(218,251)"/>
<path d="M0 0 C0.33 0.99 0.66 1.98 1 3 C-0.40445835 5.2636564 -2.1967913 7.0208685 -4 9 C-4.66 8.67 -5.32 8.34 -6 8 C-4.55746343 4.63408134 -2.66735273 2.48952921 0 0 Z " fill="#F1E5A1" transform="translate(191,150)"/>
<path d="M0 0 C-1.65 1.65 -3.3 3.3 -5 5 C-5.12375 4.360625 -5.2475 3.72125 -5.375 3.0625 C-5.684375 2.0415625 -5.684375 2.0415625 -6 1 C-6.66 0.67 -7.32 0.34 -8 0 C-2.25 -1.125 -2.25 -1.125 0 0 Z " fill="#DED39C" transform="translate(232,206)"/>
<path d="M0 0 C1.2077558 3.62326739 0.54311128 4.64146369 -1 8 C-2.32 7.01 -3.64 6.02 -5 5 C-3.35 3.35 -1.7 1.7 0 0 Z " fill="#949870" transform="translate(184,286)"/>
<path d="M0 0 C0.99 0 1.98 0 3 0 C3 1.32 3 2.64 3 4 C3.66 4.33 4.32 4.66 5 5 C3.35 5 1.7 5 0 5 C-0.5625 3.0625 -0.5625 3.0625 -1 1 C-0.67 0.67 -0.34 0.34 0 0 Z " fill="#E5D594" transform="translate(188,249)"/>
<path d="M0 0 C0.33 1.32 0.66 2.64 1 4 C0.34 4 -0.32 4 -1 4 C-1.33 4.99 -1.66 5.98 -2 7 C-2.99 6.67 -3.98 6.34 -5 6 C-3.35 4.02 -1.7 2.04 0 0 Z " fill="#7D7A48" transform="translate(208,232)"/>
<path d="M0 0 C2 0 2 0 4.125 2 C4.74375 2.66 5.3625 3.32 6 4 C5.67 4.99 5.34 5.98 5 7 C2.5 5.1875 2.5 5.1875 0 3 C0 2.01 0 1.02 0 0 Z " fill="#E7D997" transform="translate(284,222)"/>
<path d="M0 0 C0.99 0 1.98 0 3 0 C2.34 2.64 1.68 5.28 1 8 C0.01 7.67 -0.98 7.34 -2 7 C-1.34 4.69 -0.68 2.38 0 0 Z " fill="#F3E6A8" transform="translate(170,182)"/>
<path d="M0 0 C0.66 0.33 1.32 0.66 2 1 C1 4 1 4 0 6 C-0.66 6 -1.32 6 -2 6 C-2.33 6.66 -2.66 7.32 -3 8 C-3.33 7.34 -3.66 6.68 -4 6 C-2.68 4.02 -1.36 2.04 0 0 Z " fill="#767547" transform="translate(229,180)"/>
<path d="M0 0 C0.99 0.33 1.98 0.66 3 1 C4.1875 3.5625 4.1875 3.5625 5 6 C3.68 6.33 2.36 6.66 1 7 C0.67 4.69 0.34 2.38 0 0 Z " fill="#7A7C55" transform="translate(233,364)"/>
<path d="M0 0 C1.32 0.33 2.64 0.66 4 1 C4.33 1.99 4.66 2.98 5 4 C5.99 4.33 6.98 4.66 8 5 C7.34 5.66 6.68 6.32 6 7 C4.02 4.69 2.04 2.38 0 0 Z " fill="#E6D799" transform="translate(301,241)"/>
<path d="M0 0 C2.03144641 0.93446535 4.03533587 1.93224776 6 3 C5.67 3.66 5.34 4.32 5 5 C2.97954558 4.39816251 0.97888961 3.72693904 -1 3 C-1.33 2.34 -1.66 1.68 -2 1 C-1.34 0.67 -0.68 0.34 0 0 Z " fill="#F3E6AA" transform="translate(293,138)"/>
<path d="M0 0 C0 3 0 3 -1 6 C-3.0625 7.1875 -3.0625 7.1875 -5 8 C-4.45773019 4.20411134 -2.79872437 2.52788007 0 0 Z " fill="#82835D" transform="translate(186,319)"/>
<path d="M0 0 C2.4375 0.75 2.4375 0.75 5 2 C5.8125 4.125 5.8125 4.125 6 6 C3.37812506 4.95125002 2.20628639 4.35068687 0.75 1.875 C0.5025 1.25625 0.255 0.6375 0 0 Z " fill="#E5D697" transform="translate(296,266)"/>
<path d="M0 0 C2.62187494 1.04874998 3.79371361 1.64931313 5.25 4.125 C5.4975 4.74375 5.745 5.3625 6 6 C5.01 6.33 4.02 6.66 3 7 C2.67 5.35 2.34 3.7 2 2 C1.34 2 0.68 2 0 2 C0 1.34 0 0.68 0 0 Z " fill="#757141" transform="translate(272,185)"/>
<path d="M0 0 C0.99 0.33 1.98 0.66 3 1 C0.525 4.465 0.525 4.465 -2 8 C-2.33 6.68 -2.66 5.36 -3 4 C-1.5625 1.75 -1.5625 1.75 0 0 Z " fill="#E2D497" transform="translate(232,172)"/>
<path d="" fill="#FFFFFF" transform="translate(0,0)"/>
<path d="" fill="#FFFFFF" transform="translate(0,0)"/>
<path d="" fill="#FFFFFF" transform="translate(0,0)"/>
<path d="" fill="#FFFFFF" transform="translate(0,0)"/>
<path d="" fill="#FFFFFF" transform="translate(0,0)"/>
<path d="" fill="#FFFFFF" transform="translate(0,0)"/>
<path d="" fill="#FFFFFF" transform="translate(0,0)"/>
<path d="" fill="#FFFFFF" transform="translate(0,0)"/>
<path d="" fill="#FFFFFF" transform="translate(0,0)"/>
<path d="" fill="#FFFFFF" transform="translate(0,0)"/>
<path d="" fill="#FFFFFF" transform="translate(0,0)"/>
<path d="" fill="#FFFFFF" transform="translate(0,0)"/>
<path d="" fill="#FFFFFF" transform="translate(0,0)"/>
<path d="" fill="#FFFFFF" transform="translate(0,0)"/>
<path d="" fill="#FFFFFF" transform="translate(0,0)"/>
<path d="" fill="#FFFFFF" transform="translate(0,0)"/>
<path d="" fill="#FFFFFF" transform="translate(0,0)"/>
<path d="" fill="#FFFFFF" transform="translate(0,0)"/>
<path d="" fill="#FFFFFF" transform="translate(0,0)"/>
<path d="" fill="#FFFFFF" transform="translate(0,0)"/>
<path d="" fill="#FFFFFF" transform="translate(0,0)"/>
<path d="" fill="#FFFFFF" transform="translate(0,0)"/>
<path d="" fill="#FFFFFF" transform="translate(0,0)"/>
<path d="" fill="#FFFFFF" transform="translate(0,0)"/>
<path d="" fill="#FFFFFF" transform="translate(0,0)"/>
<path d="" fill="#FFFFFF" transform="translate(0,0)"/>
<path d="" fill="#FFFFFF" transform="translate(0,0)"/>
<path d="" fill="#FFFFFF" transform="translate(0,0)"/>
<path d="" fill="#FFFFFF" transform="translate(0,0)"/>
<path d="" fill="#FFFFFF" transform="translate(0,0)"/>
<path d="" fill="#FFFFFF" transform="translate(0,0)"/>
<path d="" fill="#FFFFFF" transform="translate(0,0)"/>
<path d="" fill="#FFFFFF" transform="translate(0,0)"/>
<path d="" fill="#FFFFFF" transform="translate(0,0)"/>
<path d="" fill="#FFFFFF" transform="translate(0,0)"/>
<path d="" fill="#FFFFFF" transform="translate(0,0)"/>
<path d="" fill="#FFFFFF" transform="translate(0,0)"/>
<path d="" fill="#FFFFFF" transform="translate(0,0)"/>
<path d="" fill="#FFFFFF" transform="translate(0,0)"/>
<path d="" fill="#FFFFFF" transform="translate(0,0)"/>
<path d="" fill="#FFFFFF" transform="translate(0,0)"/>
<path d="" fill="#FFFFFF" transform="translate(0,0)"/>
<path d="" fill="#FFFFFF" transform="translate(0,0)"/>
<path d="" fill="#FFFFFF" transform="translate(0,0)"/>
<path d="" fill="#FFFFFF" transform="translate(0,0)"/>
<path d="" fill="#FFFFFF" transform="translate(0,0)"/>
<path d="" fill="#FFFFFF" transform="translate(0,0)"/>
<path d="" fill="#FFFFFF" transform="translate(0,0)"/>
<path d="" fill="#FFFFFF" transform="translate(0,0)"/>
<path d="" fill="#FFFFFF" transform="translate(0,0)"/>
</svg>
