<?xml version="1.0" encoding="UTF-8"?>
<svg version="1.1" xmlns="http://www.w3.org/2000/svg" width="600" height="337">
<path d="M0 0 C1.45542294 0.46580165 2.91116361 0.93061147 4.3671875 1.39453125 C32.16002963 10.49640537 54.54106389 29.63910436 67.9140625 55.671875 C75.95497374 71.86974317 80.33149417 89.82355632 79 108 C78.67 108.66 78.34 109.32 78 110 C77.9603287 111.66619446 77.95615553 113.33391013 78 115 C-67.44175703 116.5857242 -67.44175703 116.5857242 -134 115 C-135.14972711 102.07251598 -135.14972711 102.07251598 -135.1875 96.1875 C-135.20167969 95.17042969 -135.21585938 94.15335937 -135.23046875 93.10546875 C-134.96345182 89.50752883 -134.06143134 86.44687808 -133 83 C-132.6565589 81.6490208 -132.32092596 80.29603816 -131.9921875 78.94140625 C-129.27280566 68.12786435 -125.29209695 58.78705795 -120 49 C-118.99277984 47.0036264 -117.99014792 45.00489578 -117 43 C-116.34 43 -115.68 43 -115 43 C-114.74089844 42.43539062 -114.48179687 41.87078125 -114.21484375 41.2890625 C-106.7986784 27.31519467 -93.23794206 17.90030677 -80 10 C-79.04996094 9.42121094 -78.09992188 8.84242187 -77.12109375 8.24609375 C-71.17731745 4.79403153 -65.28373345 2.65718339 -58.65234375 0.859375 C-55.88012708 0.18327841 -55.88012708 0.18327841 -54 -2 C-54 -1.34 -54 -0.68 -54 0 C-52.989375 -0.309375 -51.97875 -0.61875 -50.9375 -0.9375 C-34.83688053 -5.86626106 -15.80072256 -5.42727386 0 0 Z M-120 109 C-120 109.33 -120 109.66 -120 110 C-105.81 110 -91.62 110 -77 110 C-77 109.67 -77 109.34 -77 109 C-91.19 109 -105.38 109 -120 109 Z M-76 109 C-76 109.33 -76 109.66 -76 110 C-72.04 110 -68.08 110 -64 110 C-64 109.67 -64 109.34 -64 109 C-67.96 109 -71.92 109 -76 109 Z M-63 109 C-63 109.33 -63 109.66 -63 110 C-56.07 110 -49.14 110 -42 110 C-42 109.67 -42 109.34 -42 109 C-48.93 109 -55.86 109 -63 109 Z M-41 109 C-41 109.33 -41 109.66 -41 110 C-36.38 110 -31.76 110 -27 110 C-27 109.67 -27 109.34 -27 109 C-31.62 109 -36.24 109 -41 109 Z M-26 109 C-26 109.33 -26 109.66 -26 110 C-24.02 110 -22.04 110 -20 110 C-20 109.67 -20 109.34 -20 109 C-21.98 109 -23.96 109 -26 109 Z M-19 109 C-19 109.33 -19 109.66 -19 110 C2.45 110 23.9 110 46 110 C46 109.67 46 109.34 46 109 C24.55 109 3.1 109 -19 109 Z " fill="#CF894D" transform="translate(328,66)"/>
<path d="M0 0 C0.99 0 1.98 0 3 0 C4.90397384 7.55602195 6.27313887 14.91808854 6.75 22.6875 C6.79439209 23.35064209 6.83878418 24.01378418 6.88452148 24.69702148 C7.08766304 28.77028275 6.88986211 32.70805289 6.50097656 36.76879883 C6.40802307 37.7509285 6.31506958 38.73305817 6.21929932 39.74494934 C6.14693054 40.48911606 6.07456177 41.23328278 6 42 C-139.44175703 43.5857242 -139.44175703 43.5857242 -206 42 C-206.5874055 35.57098915 -207.1326939 29.20783898 -207.0625 22.75 C-207.05347656 21.65171875 -207.04445312 20.5534375 -207.03515625 19.421875 C-207.02355469 18.62265625 -207.01195312 17.8234375 -207 17 C-206.01 16.67 -205.02 16.34 -204 16 C-204 19.96 -204 23.92 -204 28 C-135.36 28 -66.72 28 4 28 C2.79957139 10.01373535 2.79957139 10.01373535 0 1 C0 0.67 0 0.34 0 0 Z M-192 36 C-192 36.33 -192 36.66 -192 37 C-177.81 37 -163.62 37 -149 37 C-149 36.67 -149 36.34 -149 36 C-163.19 36 -177.38 36 -192 36 Z M-148 36 C-148 36.33 -148 36.66 -148 37 C-144.04 37 -140.08 37 -136 37 C-136 36.67 -136 36.34 -136 36 C-139.96 36 -143.92 36 -148 36 Z M-135 36 C-135 36.33 -135 36.66 -135 37 C-128.07 37 -121.14 37 -114 37 C-114 36.67 -114 36.34 -114 36 C-120.93 36 -127.86 36 -135 36 Z M-113 36 C-113 36.33 -113 36.66 -113 37 C-108.38 37 -103.76 37 -99 37 C-99 36.67 -99 36.34 -99 36 C-103.62 36 -108.24 36 -113 36 Z M-98 36 C-98 36.33 -98 36.66 -98 37 C-96.02 37 -94.04 37 -92 37 C-92 36.67 -92 36.34 -92 36 C-93.98 36 -95.96 36 -98 36 Z M-91 36 C-91 36.33 -91 36.66 -91 37 C-69.55 37 -48.1 37 -26 37 C-26 36.67 -26 36.34 -26 36 C-47.45 36 -68.9 36 -91 36 Z " fill="#CA845E" transform="translate(400,139)"/>
<path d="M0 0 C1.11443356 0.01281384 2.22886711 0.02562767 3.37707138 0.0388298 C16.81413898 0.19497626 30.25092179 0.3688383 43.6875 0.5625 C44.0175 1.8825 44.3475 3.2025 44.6875 4.5625 C41.49941923 6.15654039 38.05134494 5.69544586 34.55050659 5.68275452 C33.27387498 5.68403615 33.27387498 5.68403615 31.97145283 5.68534368 C29.1031806 5.68699835 26.23496611 5.68147731 23.36669922 5.67602539 C21.3171692 5.67574349 19.26763909 5.67590131 17.21810913 5.6764679 C11.63988428 5.67675576 6.06168077 5.67086082 0.4834609 5.66389394 C-5.34084879 5.65765855 -11.16515892 5.65705645 -16.98947144 5.65586853 C-28.02502498 5.65275576 -39.06056866 5.64454311 -50.09611785 5.63451904 C-62.65698802 5.62335621 -75.21785865 5.61784702 -87.77873254 5.61282361 C-113.62332717 5.60236045 -139.46791303 5.58476206 -165.3125 5.5625 C-165.6425 3.9125 -165.9725 2.2625 -166.3125 0.5625 C-150.25021824 0.3549279 -134.18773259 0.16913282 -118.125 0 C-116.31275625 -0.0190999 -116.31275625 -0.0190999 -114.46390152 -0.03858566 C-76.30306571 -0.43458508 -38.16036501 -0.43921883 0 0 Z " fill="#C06D54" transform="translate(361.3125,184.4375)"/>
<path d="M0 0 C8.7989963 0.07341704 17.59804959 0.13847054 26.39711428 0.20307851 C44.40231008 0.33545769 62.40741644 0.47752829 80.41248107 0.62664449 C80.08248107 2.27664449 79.75248107 3.92664449 79.41248107 5.62664449 C73.87838819 6.41530653 68.55621403 6.7600601 62.9715631 6.70893514 C62.16026789 6.70570601 61.34897267 6.70247689 60.51309276 6.69914991 C57.81544305 6.68715978 55.11789939 6.66777002 52.42029357 6.64837301 C50.47825382 6.63822119 48.53621163 6.62852851 46.59416747 6.61925924 C41.33651059 6.59286863 36.07891105 6.56007096 30.82129836 6.52610934 C25.321358 6.49167653 19.82138704 6.46315504 14.32141662 6.43400228 C3.91290359 6.3779356 -6.49557111 6.31656476 -16.90404248 6.25328094 C-28.75645891 6.1814767 -40.60890596 6.11559669 -52.46135926 6.05021048 C-76.83678556 5.91560647 -101.21216404 5.77357522 -125.58751893 5.62664449 C-125.58751893 3.97664449 -125.58751893 2.32664449 -125.58751893 0.62664449 C-83.71258149 -0.49162651 -41.88331282 -0.35085686 0 0 Z " fill="#C06453" transform="translate(322.5875189304352,194.37335550785065)"/>
<path d="M0 0 C65.34 0 130.68 0 198 0 C198 1.65 198 3.3 198 5 C133.32 5 68.64 5 2 5 C1.34 3.35 0.68 1.7 0 0 Z " fill="#BC6155" transform="translate(201,207)"/>
<path d="M0 0 C2.22773308 -0.00160837 4.45545568 -0.00515358 6.68318558 -0.00918579 C10.78817633 -0.01607173 14.89310186 -0.01365011 18.99809647 -0.00942993 C20.16546844 -0.01141388 21.33284042 -0.01339783 22.53558731 -0.01544189 C29.77483716 0.00512955 36.91125597 0.41065065 44.11528397 1.12338257 C43.45528397 2.77338257 42.79528397 4.42338257 42.11528397 6.12338257 C30.90733168 6.33647174 19.69903721 6.52066318 8.49028397 6.68588257 C7.19598465 6.70498247 7.19598465 6.70498247 5.87553787 6.72446823 C-27.38345624 7.20613056 -60.62514128 7.05640208 -93.88471603 6.68588257 C-95.61153988 6.66666182 -95.61153988 6.66666182 -97.37324905 6.64705276 C-111.54393997 6.4879156 -125.71440576 6.31333954 -139.88471603 6.12338257 C-140.21471603 4.47338257 -140.54471603 2.82338257 -140.88471603 1.12338257 C-42.21748395 0.01990978 -42.21748395 0.01990978 0 0 Z " fill="#BD5B56" transform="translate(348.88471603393555,218.87661743164063)"/>
<path d="M0 0 C0.66097878 -0.00297112 1.32195755 -0.00594224 2.00296599 -0.0090034 C4.23396926 -0.01772561 6.4649191 -0.01920159 8.69593811 -0.02069092 C10.28888057 -0.02531656 11.88182192 -0.03034087 13.47476196 -0.03573608 C17.81354121 -0.04888552 22.15230496 -0.05530984 26.49110103 -0.05974674 C29.19858368 -0.06267304 31.90606205 -0.06677696 34.61354256 -0.07125092 C43.07536041 -0.08493179 51.53716853 -0.09459587 59.99899668 -0.09845281 C69.78436519 -0.10293688 79.56959424 -0.12049845 89.35492033 -0.1494534 C96.90735378 -0.17102961 104.45974789 -0.18115489 112.01221186 -0.18249393 C116.52833663 -0.18354477 121.04433043 -0.18951161 125.5604229 -0.20731354 C129.80638578 -0.22372452 134.05211824 -0.22598396 138.29810143 -0.21717453 C139.85983647 -0.21640042 141.42158355 -0.22079567 142.98328781 -0.23063278 C145.10884792 -0.24324046 147.23357801 -0.23753785 149.35913086 -0.22705078 C150.55063216 -0.22851734 151.74213346 -0.2299839 152.96974087 -0.2314949 C153.88493527 -0.10875576 154.80012968 0.01398338 155.74305725 0.14044189 C156.73305725 1.62544189 156.73305725 1.62544189 157.74305725 3.14044189 C154.14976547 5.53596975 152.577891 5.38763819 148.30807495 5.38095093 C147.6521433 5.38265978 146.99621165 5.38436863 146.32040328 5.38612926 C144.11848538 5.38942831 141.91687099 5.37841387 139.71498108 5.36749268 C138.13820401 5.36692865 136.56142642 5.36724495 134.98464966 5.36837769 C130.69979416 5.36895254 126.41505018 5.3571768 122.13022065 5.34322977 C117.65389712 5.33074449 113.17757116 5.32955365 108.70123291 5.32717896 C100.22272554 5.3209577 91.74426962 5.30453816 83.26578492 5.28447998 C73.61415288 5.26214104 63.9625184 5.2511326 54.31086695 5.24108911 C34.45490165 5.22017249 14.59898269 5.18498398 -5.25694275 5.14044189 C-5.91694275 3.82044189 -6.57694275 2.50044189 -7.25694275 1.14044189 C-5.41932129 -0.69717956 -2.46282113 0.00615054 0 0 Z " fill="#BE565B" transform="translate(225.25694274902344,234.85955810546875)"/>
<path d="M0 0 C0.66 0 1.32 0 2 0 C2 3.96 2 7.92 2 12 C1.34 12 0.68 12 0 12 C0 11.01 0 10.02 0 9 C-69.3 9 -138.6 9 -210 9 C-210 8.01 -210 7.02 -210 6 C-140.7 6 -71.4 6 0 6 C0 4.02 0 2.04 0 0 Z " fill="#D49363" transform="translate(405,162)"/>
<path d="M0 0 C1.72857239 0.01441132 1.72857239 0.01441132 3.49206543 0.02911377 C7.26870289 0.06186973 11.04521603 0.10228998 14.82177734 0.14282227 C17.45306979 0.1671463 20.08436674 0.19098868 22.71566772 0.21437073 C28.91317601 0.27024934 35.11061647 0.3316525 41.30805147 0.39509207 C48.36977811 0.46710603 55.43155867 0.53288275 62.49335027 0.59816253 C77.00654096 0.732462 91.51964955 0.87450663 106.03271484 1.02172852 C106.03271484 1.68172852 106.03271484 2.34172852 106.03271484 3.02172852 C102.77587138 5.19295749 101.87607041 5.27248152 98.11196899 5.2756958 C96.58945274 5.28415527 96.58945274 5.28415527 95.03617859 5.29278564 C93.92338028 5.28873718 92.81058197 5.28468872 91.6640625 5.28051758 C89.90517952 5.28577454 89.90517952 5.28577454 88.11076355 5.2911377 C84.89371039 5.29843912 81.67682142 5.29671692 78.45977068 5.29037952 C75.09218531 5.28531724 71.72461094 5.29001183 68.35702515 5.29315186 C62.69942251 5.29679184 57.04187206 5.29199263 51.38427734 5.2824707 C44.84786717 5.27159657 38.31158186 5.27510397 31.77517474 5.28612351 C26.1614836 5.29520805 20.54783 5.29647565 14.93413389 5.29124618 C11.58219379 5.28813153 8.23031231 5.28770301 4.87837601 5.29431915 C1.1388834 5.29939325 -2.60036904 5.29166083 -6.33984375 5.28051758 C-7.4485936 5.28456604 -8.55734344 5.2886145 -9.69969177 5.29278564 C-10.72034225 5.287146 -11.74099274 5.28150635 -12.79257202 5.2756958 C-13.67636221 5.27494175 -14.5601524 5.2741877 -15.47072411 5.2734108 C-18.26168494 4.99204961 -20.42157051 4.17275725 -22.96728516 3.02172852 C-22.63728516 2.36172852 -22.30728516 1.70172852 -21.96728516 1.02172852 C-14.87241252 -0.55103035 -7.22131459 -0.08758125 0 0 Z " fill="#C05D68" transform="translate(257.96728515625,251.978271484375)"/>
<path d="M0 0 C0.99 0.495 0.99 0.495 2 1 C2 1.66 2 2.32 2 3 C70.31 3 138.62 3 209 3 C209 3.66 209 4.32 209 5 C140.36 5 71.72 5 1 5 C0.67 3.35 0.34 1.7 0 0 Z " fill="#BD735C" transform="translate(195,185)"/>
<path d="M0 0 C2.22773308 -0.00160837 4.45545568 -0.00515358 6.68318558 -0.00918579 C10.78817633 -0.01607173 14.89310186 -0.01365011 18.99809647 -0.00942993 C20.16546844 -0.01141388 21.33284042 -0.01339783 22.53558731 -0.01544189 C29.77483716 0.00512955 36.91125597 0.41065065 44.11528397 1.12338257 C44.11528397 1.78338257 44.11528397 2.44338257 44.11528397 3.12338257 C-15.94471603 3.45338257 -76.00471603 3.78338257 -137.88471603 4.12338257 C-137.88471603 4.78338257 -137.88471603 5.44338257 -137.88471603 6.12338257 C-138.87471603 5.79338257 -139.86471603 5.46338257 -140.88471603 5.12338257 C-140.88471603 3.80338257 -140.88471603 2.48338257 -140.88471603 1.12338257 C-42.21748395 0.01990978 -42.21748395 0.01990978 0 0 Z " fill="#C16964" transform="translate(348.88471603393555,218.87661743164063)"/>
<path d="M0 0 C0.99 0 1.98 0 3 0 C5.46532464 10.31620964 6.74175448 18.54947315 5 29 C-64.3 29 -133.6 29 -205 29 C-205.66 25.04 -206.32 21.08 -207 17 C-206.01 16.67 -205.02 16.34 -204 16 C-204 19.96 -204 23.92 -204 28 C-135.36 28 -66.72 28 4 28 C2.79957139 10.01373535 2.79957139 10.01373535 0 1 C0 0.67 0 0.34 0 0 Z " fill="#C88B58" transform="translate(400,139)"/>
<path d="M0 0 C39.6 0 79.2 0 120 0 C120 0.99 120 1.98 120 3 C80.4 2.67 40.8 2.34 0 2 C0 1.34 0 0.68 0 0 Z " fill="#BF5361" transform="translate(241,254)"/>
<path d="M0 0 C0.70072128 -0.00095673 1.40144257 -0.00191345 2.12339783 -0.00289917 C3.60692433 -0.00357862 5.09045384 -0.0017407 6.57397461 0.00244141 C8.80785094 0.00773666 11.04152099 0.00251789 13.27539062 -0.00390625 C21.15417548 -0.00720212 28.94321626 0.20543432 36.77734375 1.1328125 C36.77734375 1.7928125 36.77734375 2.4528125 36.77734375 3.1328125 C28.71343426 4.90638778 21.02084945 5.44086536 12.77734375 5.3828125 C11.6790625 5.39054687 10.58078125 5.39828125 9.44921875 5.40625 C2.35271224 5.38943363 -4.2921932 4.65709771 -11.22265625 3.1328125 C-11.22265625 2.4728125 -11.22265625 1.8128125 -11.22265625 1.1328125 C-7.47805163 -0.05615703 -3.90872855 0.00341352 0 0 Z " fill="#B05565" transform="translate(287.22265625,269.8671875)"/>
<path d="M0 0 C0.66 0.33 1.32 0.66 2 1 C1 3 1 3 -1.3125 4.25 C-4.16585513 5.85324437 -4.16585513 5.85324437 -5.8125 8.75 C-9.63214627 14.42490303 -14.95958732 18.79103076 -21 22 C-16.90186471 12.69381777 -7.93813102 5.93288289 0 0 Z " fill="#CC905B" transform="translate(237,83)"/>
<path d="M0 0 C9.6295507 4.08593321 16.32048504 14.6552378 22 23 C21.01 23.66 20.02 24.32 19 25 C16 20.375 16 20.375 16 17 C15.01 16.67 14.02 16.34 13 16 C13 15.34 13 14.68 13 14 C12.01 13.67 11.02 13.34 10 13 C6 8.54285714 6 8.54285714 6 6 C5.38125 5.7525 4.7625 5.505 4.125 5.25 C1.64931313 3.79371361 1.04874998 2.62187494 0 0 Z " fill="#CF9360" transform="translate(368,88)"/>
<path d="M0 0 C0.66 0.33 1.32 0.66 2 1 C0.99088542 2.7578125 -0.01822917 4.515625 -1.02734375 6.2734375 C-1.71719051 7.49798475 -2.37144538 8.74289077 -3 10 C-3.66 10 -4.32 10 -5 10 C-5.2475 11.051875 -5.495 12.10375 -5.75 13.1875 C-6.76700786 16.8133541 -8.45373429 19.19910772 -11 22 C-10.46199791 17.01400883 -8.88255471 13.48164295 -6.4375 9.125 C-5.79683594 7.97257812 -5.15617188 6.82015625 -4.49609375 5.6328125 C-3.75552734 4.32957031 -3.75552734 4.32957031 -3 3 C-2.34 3 -1.68 3 -1 3 C-0.67 2.01 -0.34 1.02 0 0 Z " fill="#D09561" transform="translate(214,106)"/>
<path d="M0 0 C0.99 0 1.98 0 3 0 C3.53321262 2.22623801 4.05110119 4.45615004 4.5625 6.6875 C4.85253906 7.92886719 5.14257812 9.17023438 5.44140625 10.44921875 C5.96241956 13.76111454 5.91852996 15.81860153 5 19 C2.65227567 16.65227567 2.71997087 16.00757688 2.5 12.8125 C2.12913745 8.63861059 1.24773559 4.9927539 0 1 C0 0.67 0 0.34 0 0 Z " fill="#CD925F" transform="translate(400,139)"/>
<path d="M0 0 C-5.30056874 4.240455 -10.18059647 7.33469234 -17 8 C-17 8.66 -17 9.32 -17 10 C-20.465 11.485 -20.465 11.485 -24 13 C-22.42793579 8.28380737 -18.46291454 7.11254135 -14.25 4.8125 C-13.43789062 4.34908203 -12.62578125 3.88566406 -11.7890625 3.40820312 C-10.99757812 2.97056641 -10.20609375 2.53292969 -9.390625 2.08203125 C-8.3082959 1.48225464 -8.3082959 1.48225464 -7.20410156 0.87036133 C-4.66680501 -0.1315729 -2.70423081 -0.15811266 0 0 Z " fill="#D09461" transform="translate(264,70)"/>
<path d="M0 0 C0.66 0 1.32 0 2 0 C1.46148032 5.27749285 0.22656164 9.25645564 -2 14 C-2.33 14 -2.66 14 -3 14 C-2.58846263 9.02906176 -2.20399168 4.55491614 0 0 Z " fill="#CC915D" transform="translate(201,129)"/>
<path d="M0 0 C1.18851562 0.28746094 2.37703125 0.57492188 3.6015625 0.87109375 C4.51679688 1.09925781 5.43203125 1.32742187 6.375 1.5625 C6.375 2.2225 6.375 2.8825 6.375 3.5625 C4.24965341 3.42180804 2.12472471 3.27479079 0 3.125 C-1.18335938 3.04378906 -2.36671875 2.96257812 -3.5859375 2.87890625 C-6.625 2.5625 -6.625 2.5625 -8.625 1.5625 C-8.625 0.9025 -8.625 0.2425 -8.625 -0.4375 C-5.54978317 -1.97510842 -3.27824882 -0.80349236 0 0 Z " fill="#D0945F" transform="translate(318.625,63.4375)"/>
<path d="M0 0 C-0.33 1.65 -0.66 3.3 -1 5 C-1.66 4.34 -2.32 3.68 -3 3 C-5.43252661 2.53837573 -5.43252661 2.53837573 -8.125 2.375 C-9.03507812 2.30023438 -9.94515625 2.22546875 -10.8828125 2.1484375 C-11.58148438 2.09945312 -12.28015625 2.05046875 -13 2 C-13 1.67 -13 1.34 -13 1 C-11.58366664 0.83052421 -10.16691467 0.66454493 -8.75 0.5 C-7.56664062 0.36078125 -7.56664062 0.36078125 -6.359375 0.21875 C-4 0 -4 0 0 0 Z " fill="#C16C5C" transform="translate(403,195)"/>
<path d="M0 0 C0.33 0.66 0.66 1.32 1 2 C3.02463255 2.65213292 3.02463255 2.65213292 5 3 C3.5882217 3.53394179 2.17029756 4.05165104 0.75 4.5625 C-0.03890625 4.85253906 -0.8278125 5.14257812 -1.640625 5.44140625 C-4.19103452 6.04522837 -5.55322229 5.8473932 -8 5 C-6.865625 4.54625 -5.73125 4.0925 -4.5625 3.625 C-0.95278308 2.42904194 -0.95278308 2.42904194 0 0 Z " fill="#CF9460" transform="translate(273,64)"/>
<path d="M0 0 C0.66 0 1.32 0 2 0 C1.67 2.64 1.34 5.28 1 8 C0.01 7.67 -0.98 7.34 -2 7 C-1.34 4.69 -0.68 2.38 0 0 Z " fill="#CD915D" transform="translate(197,144)"/>
<path d="M0 0 C7.50769231 0.61538462 7.50769231 0.61538462 10 2.5625 C10.33 3.036875 10.66 3.51125 11 4 C6.55129785 4.39253254 3.85756507 3.15305957 0 1 C0 0.67 0 0.34 0 0 Z " fill="#CD935F" transform="translate(327,67)"/>
<path d="M0 0 C0 0.66 0 1.32 0 2 C-3.69541586 2.95024979 -6.30458414 2.95024979 -10 2 C-6.3558226 -0.4294516 -4.28758728 -0.16179575 0 0 Z " fill="#AD606E" transform="translate(320,272)"/>
<path d="M0 0 C2.00720923 0.28674418 4.0085944 0.61866701 6 1 C4.35 2.32 2.7 3.64 1 5 C0.34 3.68 -0.32 2.36 -1 1 C-0.67 0.67 -0.34 0.34 0 0 Z " fill="#B66163" transform="translate(219,235)"/>
<path d="M0 0 C3 1 3 1 4.25 2.875 C5 5 5 5 4 8 C1.84622436 5.37801226 0.59927826 3.35595828 0 0 Z " fill="#CF9461" transform="translate(389,113)"/>
<path d="M0 0 C3 1 3 1 3 1 Z " fill="#B86851" transform="translate(312,218)"/>
<path d="M0 0 C0.66 0.66 1.32 1.32 2 2 C1.34 2 0.68 2 0 2 C0 1.34 0 0.68 0 0 Z " fill="#CE8951" transform="translate(402,130)"/>
<path d="" fill="#A55152" transform="translate(0,0)"/>
<path d="M0 0 C2 1 2 1 2 1 Z " fill="#AA6051" transform="translate(384,231)"/>
<path d="" fill="#CE8661" transform="translate(0,0)"/>
<path d="" fill="#DA9D68" transform="translate(0,0)"/>
<path d="" fill="#A44F54" transform="translate(0,0)"/>
<path d="" fill="#AC5156" transform="translate(0,0)"/>
<path d="" fill="#AB4F57" transform="translate(0,0)"/>
<path d="" fill="#AB4F57" transform="translate(0,0)"/>
<path d="" fill="#BA596A" transform="translate(0,0)"/>
<path d="" fill="#B15158" transform="translate(0,0)"/>
<path d="" fill="#9D4C50" transform="translate(0,0)"/>
<path d="" fill="#A95256" transform="translate(0,0)"/>
<path d="" fill="#A44F54" transform="translate(0,0)"/>
<path d="" fill="#9C4B4F" transform="translate(0,0)"/>
<path d="" fill="#A45152" transform="translate(0,0)"/>
<path d="" fill="#A45152" transform="translate(0,0)"/>
<path d="" fill="#A45152" transform="translate(0,0)"/>
<path d="" fill="#9D4D4E" transform="translate(0,0)"/>
<path d="" fill="#9D4D4E" transform="translate(0,0)"/>
<path d="" fill="#9D4D4F" transform="translate(0,0)"/>
<path d="" fill="#A75253" transform="translate(0,0)"/>
<path d="" fill="#9D4E4E" transform="translate(0,0)"/>
<path d="" fill="#A65252" transform="translate(0,0)"/>
<path d="" fill="#A45151" transform="translate(0,0)"/>
<path d="" fill="#A75353" transform="translate(0,0)"/>
<path d="" fill="#A65252" transform="translate(0,0)"/>
<path d="" fill="#A45152" transform="translate(0,0)"/>
<path d="" fill="#AC5654" transform="translate(0,0)"/>
<path d="" fill="#B95E60" transform="translate(0,0)"/>
<path d="" fill="#B05654" transform="translate(0,0)"/>
<path d="" fill="#AC6261" transform="translate(0,0)"/>
<path d="" fill="#B05F62" transform="translate(0,0)"/>
<path d="" fill="#A75450" transform="translate(0,0)"/>
<path d="" fill="#9D4F4C" transform="translate(0,0)"/>
<path d="" fill="#A4534F" transform="translate(0,0)"/>
<path d="" fill="#A45450" transform="translate(0,0)"/>
<path d="" fill="#AE625F" transform="translate(0,0)"/>
<path d="" fill="#A1594E" transform="translate(0,0)"/>
<path d="" fill="#A1584E" transform="translate(0,0)"/>
<path d="" fill="#A1584E" transform="translate(0,0)"/>
<path d="" fill="#AA6251" transform="translate(0,0)"/>
<path d="" fill="#B56751" transform="translate(0,0)"/>
<path d="" fill="#B26350" transform="translate(0,0)"/>
<path d="" fill="#BA6F53" transform="translate(0,0)"/>
<path d="" fill="#BA6C52" transform="translate(0,0)"/>
<path d="" fill="#B86852" transform="translate(0,0)"/>
<path d="" fill="#B96A51" transform="translate(0,0)"/>
<path d="" fill="#A9654C" transform="translate(0,0)"/>
<path d="" fill="#B36D4F" transform="translate(0,0)"/>
<path d="" fill="#B56E50" transform="translate(0,0)"/>
<path d="" fill="#AB674C" transform="translate(0,0)"/>
<path d="" fill="#BB6E5E" transform="translate(0,0)"/>
<path d="" fill="#B06E4A" transform="translate(0,0)"/>
<path d="" fill="#B06D4A" transform="translate(0,0)"/>
<path d="" fill="#C4724D" transform="translate(0,0)"/>
<path d="" fill="#B1704A" transform="translate(0,0)"/>
<path d="" fill="#B2714A" transform="translate(0,0)"/>
<path d="" fill="#B3724A" transform="translate(0,0)"/>
<path d="" fill="#BF744D" transform="translate(0,0)"/>
<path d="" fill="#BF744D" transform="translate(0,0)"/>
<path d="" fill="#BE734D" transform="translate(0,0)"/>
<path d="" fill="#C3784B" transform="translate(0,0)"/>
<path d="" fill="#BB775D" transform="translate(0,0)"/>
<path d="" fill="#BB795F" transform="translate(0,0)"/>
<path d="" fill="#C47D50" transform="translate(0,0)"/>
<path d="" fill="#D08A62" transform="translate(0,0)"/>
<path d="" fill="#CB8761" transform="translate(0,0)"/>
<path d="" fill="#CD8861" transform="translate(0,0)"/>
<path d="" fill="#D08962" transform="translate(0,0)"/>
<path d="" fill="#D08962" transform="translate(0,0)"/>
<path d="" fill="#CC845F" transform="translate(0,0)"/>
<path d="" fill="#CC845F" transform="translate(0,0)"/>
<path d="" fill="#C18762" transform="translate(0,0)"/>
<path d="" fill="#C8824E" transform="translate(0,0)"/>
<path d="" fill="#D29869" transform="translate(0,0)"/>
<path d="" fill="#C7844F" transform="translate(0,0)"/>
<path d="" fill="#B87948" transform="translate(0,0)"/>
<path d="" fill="#B87948" transform="translate(0,0)"/>
<path d="" fill="#CA834A" transform="translate(0,0)"/>
<path d="" fill="#C2814C" transform="translate(0,0)"/>
<path d="" fill="#C2814C" transform="translate(0,0)"/>
<path d="" fill="#C4824B" transform="translate(0,0)"/>
<path d="" fill="#C4824B" transform="translate(0,0)"/>
<path d="" fill="#BB7D47" transform="translate(0,0)"/>
<path d="" fill="#CC864A" transform="translate(0,0)"/>
<path d="" fill="#BC7D47" transform="translate(0,0)"/>
<path d="" fill="#BC7D47" transform="translate(0,0)"/>
<path d="" fill="#CA864B" transform="translate(0,0)"/>
<path d="" fill="#CA864B" transform="translate(0,0)"/>
<path d="" fill="#CA864B" transform="translate(0,0)"/>
<path d="" fill="#CA864B" transform="translate(0,0)"/>
<path d="" fill="#D18C4F" transform="translate(0,0)"/>
<path d="" fill="#D89256" transform="translate(0,0)"/>
<path d="" fill="#D69459" transform="translate(0,0)"/>
<path d="" fill="#BD7E46" transform="translate(0,0)"/>
<path d="" fill="#D99B63" transform="translate(0,0)"/>
<path d="" fill="#C5834A" transform="translate(0,0)"/>
<path d="" fill="#BD7E46" transform="translate(0,0)"/>
<path d="" fill="#CE8749" transform="translate(0,0)"/>
<path d="" fill="#BD7D46" transform="translate(0,0)"/>
<path d="" fill="#CF925C" transform="translate(0,0)"/>
<path d="" fill="#D4965F" transform="translate(0,0)"/>
<path d="" fill="#D08849" transform="translate(0,0)"/>
<path d="" fill="#CF925A" transform="translate(0,0)"/>
<path d="" fill="#CE8748" transform="translate(0,0)"/>
<path d="" fill="#CF884A" transform="translate(0,0)"/>
<path d="" fill="#CB8548" transform="translate(0,0)"/>
<path d="" fill="#CC9361" transform="translate(0,0)"/>
<path d="" fill="#C5834A" transform="translate(0,0)"/>
<path d="" fill="#BD7D46" transform="translate(0,0)"/>
<path d="" fill="#BD7D46" transform="translate(0,0)"/>
</svg>
