<?xml version="1.0" encoding="UTF-8"?>
<svg version="1.1" xmlns="http://www.w3.org/2000/svg" width="500" height="500">
<path d="M0 0 C5.34857992 1.47162066 8.35602218 5.05021838 12.0625 8.9375 C13.28023132 10.19885921 14.50021831 11.45804539 15.72265625 12.71484375 C16.28871582 13.29733887 16.85477539 13.87983398 17.43798828 14.47998047 C19.07161658 16.13569356 19.07161658 16.13569356 21.43359375 17.81640625 C21.95050781 18.20699219 22.46742188 18.59757812 23 19 C23 19.66 23 20.32 23 21 C23.66 21 24.32 21 25 21 C25 21.66 25 22.32 25 23 C25.66 23 26.32 23 27 23 C27 23.66 27 24.32 27 25 C27.55171875 25.22300781 28.1034375 25.44601563 28.671875 25.67578125 C31.7305676 27.41554097 33.8073812 29.65764482 36.25 32.1875 C41.54912488 37.60629398 46.99494061 42.68360006 53 47.3125 C53.99 48.1478125 53.99 48.1478125 55 49 C55 49.66 55 50.32 55 51 C55.66 51 56.32 51 57 51 C57 51.66 57 52.32 57 53 C57.58265625 53.268125 58.1653125 53.53625 58.765625 53.8125 C61.02786601 55.01480991 62.80576318 56.33825913 64.75 58 C65.36359375 58.515625 65.9771875 59.03125 66.609375 59.5625 C68 61 68 61 68 63 C68.928125 63.4640625 68.928125 63.4640625 69.875 63.9375 C71.25 64.625 72.625 65.3125 74 66 C74 66.66 74 67.32 74 68 C74.56203125 68.2578125 75.1240625 68.515625 75.703125 68.78125 C78.26704579 70.14169777 80.45226365 71.72788962 82.75 73.5 C83.54921875 74.1084375 84.3484375 74.716875 85.171875 75.34375 C85.77515625 75.8903125 86.3784375 76.436875 87 77 C87 77.66 87 78.32 87 79 C87.52851563 79.22816406 88.05703125 79.45632812 88.6015625 79.69140625 C91.79834429 81.43557873 94.54447471 83.66670312 97.375 85.9375 C98.62100581 86.92719406 99.86710229 87.91677397 101.11328125 88.90625 C101.75217285 89.41542969 102.39106445 89.92460937 103.04931641 90.44921875 C106.20835186 92.96063216 109.38623655 95.44793875 112.5625 97.9375 C114.71033944 99.62249004 116.85579365 101.31037635 119 103 C119.95777344 103.70253906 120.91554688 104.40507812 121.90234375 105.12890625 C122.94068359 106.05509766 122.94068359 106.05509766 124 107 C124 107.99 124 108.98 124 110 C116.96889912 110.73368197 110.03585417 111.14530301 102.96810913 111.12698364 C101.54858537 111.12932363 101.54858537 111.12932363 100.10038435 111.13171089 C96.96322817 111.13566541 93.8261213 111.13255296 90.68896484 111.12939453 C88.42611157 111.13075102 86.16325852 111.13253234 83.90040588 111.13470459 C77.77874185 111.13924895 71.65709474 111.13750184 65.53543043 111.1343255 C59.11880416 111.13178703 52.70217931 111.13414353 46.28555298 111.13571167 C34.8247906 111.13764501 23.36403756 111.13454548 11.90327676 111.12945233 C1.52503227 111.12498298 -8.85320103 111.12576311 -19.23144531 111.13037109 C-31.30562068 111.13572962 -43.3797876 111.13771105 -55.45396459 111.13475883 C-61.83744219 111.13320183 -68.22091209 111.13298657 -74.60438919 111.13629532 C-80.60444212 111.13918837 -86.60447396 111.13717195 -92.60452461 111.13140106 C-94.8035065 111.13008128 -97.00249016 111.13045428 -99.20147133 111.13266373 C-102.20836348 111.13540592 -105.21518851 111.13195668 -108.22207642 111.12698364 C-109.08716658 111.12921436 -109.95225675 111.13144509 -110.84356177 111.13374341 C-116.30104608 111.11629827 -121.58452947 110.68522445 -127 110 C-126.19314109 106.20225842 -124.87747006 104.46522064 -122.1875 101.625 C-118.35634481 97.49539234 -114.6468395 93.29320315 -111 89 C-106.6381129 83.87613836 -102.19787591 78.84597666 -97.64453125 73.890625 C-95.94218348 72.09235265 -95.94218348 72.09235265 -95 70 C-94.34 70 -93.68 70 -93 70 C-93 69.34 -93 68.68 -93 68 C-92.34 68 -91.68 68 -91 68 C-90.505 66.515 -90.505 66.515 -90 65 C-88.68 65.33 -87.36 65.66 -86 66 C-86 68.64 -86 71.28 -86 74 C-84.576875 73.01 -84.576875 73.01 -83.125 72 C-80 70 -80 70 -78 70 C-78 69.34 -78 68.68 -78 68 C-76.41113281 66.64306641 -76.41113281 66.64306641 -74.203125 65.1015625 C-73.4090625 64.53953125 -72.615 63.9775 -71.796875 63.3984375 C-70.53617188 62.52058594 -70.53617188 62.52058594 -69.25 61.625 C-67.60692441 60.47484709 -65.96622028 59.32129755 -64.328125 58.1640625 C-63.5949707 57.65311035 -62.86181641 57.1421582 -62.10644531 56.61572266 C-59.90290818 55.00505719 -59.90290818 55.00505719 -57.85449219 52.80224609 C-56 51 -56 51 -54 51 C-54 50.34 -54 49.68 -54 49 C-53.34 49 -52.68 49 -52 49 C-51.71125 48.401875 -51.4225 47.80375 -51.125 47.1875 C-50 45 -50 45 -48 42 C-47.34 42 -46.68 42 -46 42 C-45.74476563 41.27425781 -45.48953125 40.54851562 -45.2265625 39.80078125 C-43.93198926 36.8447016 -42.39544896 34.69435334 -40.375 32.1875 C-39.42753906 31.00220703 -39.42753906 31.00220703 -38.4609375 29.79296875 C-37.97882813 29.20128906 -37.49671875 28.60960938 -37 28 C-32.97171484 29.32188977 -30.8713094 30.86232974 -28.1875 34.125 C-27.58292969 34.84945312 -26.97835937 35.57390625 -26.35546875 36.3203125 C-25.90816406 36.87460938 -25.46085937 37.42890625 -25 38 C-21.76229522 35.02730308 -19.68123311 32.03150463 -17.5390625 28.203125 C-16.58386719 26.51703125 -16.58386719 26.51703125 -15.609375 24.796875 C-14.94724199 23.61496105 -14.28578746 22.43266675 -13.625 21.25 C-9.47736625 13.83615616 -5.37362535 6.60712233 0 0 Z " fill="#779EB3" transform="translate(253,55)"/>
<path d="M0 0 C1.17784561 -0.00175232 2.35569122 -0.00350464 3.56922913 -0.00531006 C6.78586168 -0.00894791 10.00245284 -0.00810865 13.21908474 -0.00493097 C16.58805361 -0.00239307 19.95701979 -0.00474868 23.32598877 -0.00631714 C28.97823582 -0.00813365 34.63046978 -0.00574506 40.28271484 -0.00097656 C46.82091941 0.0044756 53.35909284 0.00269442 59.89729667 -0.00280297 C65.513541 -0.0073363 71.12977594 -0.00798388 76.74602151 -0.0053643 C80.09948249 -0.00380409 83.45292881 -0.00360098 86.80638885 -0.00690079 C90.5389164 -0.00942797 94.27138325 -0.00558624 98.00390625 0 C99.67614006 -0.00303635 99.67614006 -0.00303635 101.38215637 -0.00613403 C102.39434738 -0.00331421 103.40653839 -0.00049438 104.44940186 0.00241089 C105.77339052 0.00297643 105.77339052 0.00297643 107.12412643 0.00355339 C109.24316406 0.12939453 109.24316406 0.12939453 111.24316406 1.12939453 C111.24316406 73.06939453 111.24316406 145.00939453 111.24316406 219.12939453 C83.52316406 219.12939453 55.80316406 219.12939453 27.24316406 219.12939453 C17.24316406 206.12939453 17.24316406 206.12939453 17.24316406 204.12939453 C16.58316406 204.12939453 15.92316406 204.12939453 15.24316406 204.12939453 C13.84545898 202.54736328 13.84545898 202.54736328 12.22363281 200.31689453 C11.6195459 199.49600342 11.01545898 198.6751123 10.39306641 197.8293457 C9.42167725 196.49286987 9.42167725 196.49286987 8.43066406 195.12939453 C2.9808978 187.73441395 -2.58963935 180.49017352 -8.45532227 173.42041016 C-17.75683594 162.16938661 -17.75683594 162.16938661 -17.75683594 159.12939453 C-18.41683594 159.12939453 -19.07683594 159.12939453 -19.75683594 159.12939453 C-21.11376953 157.64819336 -21.11376953 157.64819336 -22.65527344 155.58642578 C-23.21730469 154.84199219 -23.77933594 154.09755859 -24.35839844 153.33056641 C-24.94363281 152.54230469 -25.52886719 151.75404297 -26.13183594 150.94189453 C-27.28505336 149.40641643 -28.43868917 147.87125246 -29.59277344 146.33642578 C-30.13643555 145.60762207 -30.68009766 144.87881836 -31.24023438 144.12792969 C-32.50984056 142.45487814 -33.834246 140.82360143 -35.17089844 139.20361328 C-36.75683594 137.12939453 -36.75683594 137.12939453 -36.75683594 135.12939453 C-37.41683594 135.12939453 -38.07683594 135.12939453 -38.75683594 135.12939453 C-39.99365234 133.78417969 -39.99365234 133.78417969 -41.35839844 131.91845703 C-41.84824219 131.25072266 -42.33808594 130.58298828 -42.84277344 129.89501953 C-43.35066406 129.18861328 -43.85855469 128.48220703 -44.38183594 127.75439453 C-45.15527344 126.70638672 -45.15527344 126.70638672 -45.94433594 125.63720703 C-49.75683594 120.39249804 -49.75683594 120.39249804 -49.75683594 118.12939453 C-50.41683594 118.12939453 -51.07683594 118.12939453 -51.75683594 118.12939453 C-53.48339844 116.23095703 -53.48339844 116.23095703 -55.38183594 113.75439453 C-56.01347656 112.94228516 -56.64511719 112.13017578 -57.29589844 111.29345703 C-58.75683594 109.12939453 -58.75683594 109.12939453 -58.75683594 107.12939453 C-59.41683594 107.12939453 -60.07683594 107.12939453 -60.75683594 107.12939453 C-60.75683594 95.90939453 -60.75683594 84.68939453 -60.75683594 73.12939453 C-56.75683594 75.12939453 -56.75683594 75.12939453 -55.50683594 77.75439453 C-55.13558594 78.93001953 -55.13558594 78.93001953 -54.75683594 80.12939453 C-54.09683594 80.12939453 -53.43683594 80.12939453 -52.75683594 80.12939453 C-51.43891641 81.69981266 -50.20569934 83.34130958 -49.00683594 85.00439453 C-48.20915161 86.09685317 -47.4095386 87.18790515 -46.60839844 88.27783203 C-46.16270508 88.8846582 -45.71701172 89.49148438 -45.2578125 90.11669922 C-42.36067609 94.00153861 -39.36535653 97.81076629 -36.38183594 101.62939453 C-35.18630506 103.16047404 -33.99098115 104.69171518 -32.79589844 106.22314453 C-32.28236816 106.87992187 -31.76883789 107.53669922 -31.23974609 108.21337891 C-30.75038574 108.84566406 -30.26102539 109.47794922 -29.75683594 110.12939453 C-29.19915527 110.82871094 -28.64147461 111.52802734 -28.06689453 112.24853516 C-26.75683594 114.12939453 -26.75683594 114.12939453 -26.75683594 116.12939453 C-26.09683594 116.12939453 -25.43683594 116.12939453 -24.75683594 116.12939453 C-23.03013341 118.30376068 -21.41536511 120.48658569 -19.81933594 122.75439453 C-16.10818916 127.92405993 -12.34067363 133.02155684 -8.38183594 138.00439453 C-4.28439352 143.17134386 -0.25243296 148.38326265 3.74316406 153.62939453 C9.50455649 161.18719522 15.35320934 168.67159498 21.24316406 176.12939453 C23.18209895 178.58660023 25.11922117 181.04522476 27.05566406 183.50439453 C27.48766113 184.05119873 27.9196582 184.59800293 28.36474609 185.16137695 C31.73051709 189.43540261 34.97617844 193.7734137 38.24316406 198.12939453 C55.40316406 198.45939453 72.56316406 198.78939453 90.24316406 199.12939453 C90.24316406 140.71939453 90.24316406 82.30939453 90.24316406 22.12939453 C61.80544099 22.87872681 61.80544099 22.87872681 33.37475586 23.84106445 C1.53822565 24.54891329 1.53822565 24.54891329 -8.66972351 15.34529114 C-17.75683594 5.43028684 -17.75683594 5.43028684 -17.75683594 1.12939453 C-11.85531335 -0.15218662 -6.00610983 -0.01098534 0 0 Z " fill="#688CAD" transform="translate(267.7568359375,187.87060546875)"/>
<path d="M0 0 C27.72 0 55.44 0 84 0 C92 10 92 10 92 12 C92.66 12 93.32 12 94 12 C95.83112142 14.25510591 97.54970411 16.52356186 99.25 18.875 C100.33185148 20.34484185 101.41524651 21.81354855 102.5 23.28125 C103.06976563 24.05339844 103.63953125 24.82554687 104.2265625 25.62109375 C107.17927168 29.58188646 110.2116179 33.47975397 113.25 37.375 C114.14851685 38.52802612 114.14851685 38.52802612 115.06518555 39.7043457 C118.03827919 43.51180373 121.02993466 47.30211898 124.0625 51.0625 C127.5220222 55.35377966 130.85379866 59.73597704 134.1875 64.125 C139.19342394 70.71374942 144.327032 77.18063579 149.59838867 83.55908203 C159 94.98294943 159 94.98294943 159 98 C159.66 98 160.32 98 161 98 C167.2575505 103.10187676 171.45556747 108.80231617 172.51220703 116.94921875 C173.11265397 126.61249974 172.60356667 136.3488423 172 146 C168.40690966 144.80230322 167.57906747 143.5323211 165.3125 140.5625 C164.68988281 139.75941406 164.06726563 138.95632813 163.42578125 138.12890625 C162 136 162 136 162 134 C161.34 134 160.68 134 160 134 C158.62101957 132.30189246 157.32040522 130.53964541 156.0625 128.75 C155.37285156 127.77546875 154.68320312 126.8009375 153.97265625 125.796875 C153.32167969 124.87390625 152.67070312 123.9509375 152 123 C151.13181641 121.89398438 151.13181641 121.89398438 150.24609375 120.765625 C149 119 149 119 149 117 C148.34 117 147.68 117 147 117 C145.7109375 115.5390625 145.7109375 115.5390625 144.375 113.625 C143.92898438 112.99851562 143.48296875 112.37203125 143.0234375 111.7265625 C142 110 142 110 142 108 C141.34 108 140.68 108 140 108 C138.55473264 106.26451831 137.1912778 104.46024037 135.875 102.625 C135.15054688 101.62726563 134.42609375 100.62953125 133.6796875 99.6015625 C132 97 132 97 132 95 C131.34 95 130.68 95 130 95 C129.67 93.68 129.34 92.36 129 91 C128.34 91 127.68 91 127 91 C125.1076556 88.66114737 123.32427201 86.30973068 121.5625 83.875 C120.48317712 82.4078186 119.40241663 80.94169382 118.3203125 79.4765625 C117.49515137 78.35749512 117.49515137 78.35749512 116.65332031 77.21582031 C113.69986791 73.25753117 110.6325776 69.39035622 107.56665039 65.51904297 C106.37544603 64.01452998 105.18757226 62.5073816 104 61 C103.40316406 60.25234375 102.80632812 59.5046875 102.19140625 58.734375 C101 57 101 57 101 55 C100.34 55 99.68 55 99 55 C97.70409429 53.40618494 96.48847306 51.74675218 95.3125 50.0625 C92.0948583 45.50956641 88.75898377 41.10874559 85.25 36.77734375 C84 35 84 35 84 33 C83.34 33 82.68 33 82 33 C80.58061562 31.23810568 79.23733457 29.41435143 77.9375 27.5625 C75.64887381 24.13481849 75.64887381 24.13481849 73 21 C55.84 20.67 38.68 20.34 21 20 C21 78.41 21 136.82 21 197 C50.7 197 80.4 197 111 197 C111 197.66 111 198.32 111 199 C111.66 199 112.32 199 113 199 C114.625 200.375 114.625 200.375 116 202 C116 202.66 116 203.32 116 204 C116.66 204 117.32 204 118 204 C118 204.66 118 205.32 118 206 C118.66 206 119.32 206 120 206 C120 206.66 120 207.32 120 208 C120.66 208 121.32 208 122 208 C122 208.66 122 209.32 122 210 C122.66 210 123.32 210 124 210 C124 210.66 124 211.32 124 212 C124.66 212 125.32 212 126 212 C127.625 213.3125 127.625 213.3125 129 215 C129 215.99 129 216.98 129 218 C86.43 218 43.86 218 0 218 C0 146.06 0 74.12 0 0 Z " fill="#84ADB5" transform="translate(121,189)"/>
<path d="M0 0 C3.03708705 1.34981647 5.03741247 2.83916739 7.3125 5.25 C10.27792557 8.32454296 13.38441952 11.06662225 16.71484375 13.73828125 C17.13894531 14.15464844 17.56304687 14.57101563 18 15 C18 15.66 18 16.32 18 17 C18.59458008 17.2678833 19.18916016 17.5357666 19.80175781 17.81176758 C22.02239757 19.01210673 23.4243607 20.20702998 25.171875 22.01171875 C25.74945557 22.60098145 26.32703613 23.19024414 26.92211914 23.79736328 C27.52531982 24.4211084 28.12852051 25.04485352 28.75 25.6875 C33.00768775 30.01888795 37.26084967 34.2474801 41.89453125 38.1796875 C44.73906435 40.63896844 47.49224605 43.19453218 50.25 45.75 C50.80679443 46.2648999 51.36358887 46.7797998 51.93725586 47.31030273 C54.15444595 49.36148292 56.3704915 51.41384555 58.58105469 53.47216797 C64.72918654 59.19622334 70.97753542 64.72352997 77.5234375 69.99609375 C79.6957265 71.75379763 81.82533106 73.54595158 83.9375 75.375 C86.22347483 77.35324745 88.54456992 79.23209034 91 81 C90.67 81.66 90.34 82.32 90 83 C82.48046875 78.21484375 82.48046875 78.21484375 80.890625 77.20288086 C79.45861807 76.29178864 78.02626537 75.38123985 76.59375 74.47094727 C70.65378857 70.69472179 64.72488842 66.90165535 58.80126953 63.09985352 C47.00178561 55.52011019 47.00178561 55.52011019 35.125 48.0625 C34.17882812 47.47597656 33.23265625 46.88945313 32.2578125 46.28515625 C29.95272938 44.87620425 29.95272938 44.87620425 27 44 C27 47.3 27 50.6 27 54 C25.0435729 51.39143053 23.42942078 49.14743626 21.87890625 46.35546875 C21.50056641 45.67806641 21.12222656 45.00066406 20.73242188 44.30273438 C20.15331055 43.25569336 20.15331055 43.25569336 19.5625 42.1875 C18.79319459 40.80586381 18.02366499 39.42435243 17.25390625 38.04296875 C16.88152832 37.37056152 16.50915039 36.6981543 16.12548828 36.00537109 C15.01425065 34.0253915 13.86592892 32.0702781 12.71484375 30.11328125 C11 27 11 27 11 25 C10.01 25 9.02 25 8 25 C8.02320313 25.68707031 8.04640625 26.37414062 8.0703125 27.08203125 C8.08835937 27.98308594 8.10640625 28.88414063 8.125 29.8125 C8.14820313 30.70582031 8.17140625 31.59914063 8.1953125 32.51953125 C8 35 8 35 6 38 C5.32779649 36.06441401 4.66241923 34.12645628 4 32.1875 C3.62875 31.10855469 3.2575 30.02960938 2.875 28.91796875 C2 26 2 26 2 23 C0.515 23.495 0.515 23.495 -1 24 C-2.22836516 26.64562186 -3.26582335 29.20898718 -4.25 31.9453125 C-4.54938477 32.7485495 -4.84876953 33.5517865 -5.15722656 34.37936401 C-6.11566237 36.95737768 -7.0582167 39.54086195 -8 42.125 C-8.9450907 44.68638866 -9.89338661 47.24656689 -10.84277344 49.80636597 C-11.43260223 51.40016161 -12.01936235 52.99509744 -12.60253906 54.59133911 C-14.26686576 59.12800556 -16.05712704 63.5751361 -18 68 C-18.33 68 -18.66 68 -19 68 C-19 61.73 -19 55.46 -19 49 C-20.32 49 -21.64 49 -23 49 C-23.37898438 50.07121094 -23.37898438 50.07121094 -23.765625 51.1640625 C-27.15650324 58.95449794 -33.39207755 65.69108724 -39 72 C-41.85215083 69.24881027 -44.34358701 66.39684775 -46.75 63.25 C-47.67039062 62.05117187 -47.67039062 62.05117187 -48.609375 60.828125 C-49.06828125 60.22484375 -49.5271875 59.6215625 -50 59 C-53.21549219 60.37806808 -54.97220001 61.88609739 -57.125 64.625 C-58.6328125 66.5390625 -58.6328125 66.5390625 -60 68 C-60.66 68 -61.32 68 -62 68 C-62.66 69.32 -63.32 70.64 -64 72 C-65.9375 71.625 -65.9375 71.625 -68 71 C-68.33 70.34 -68.66 69.68 -69 69 C-73.5374997 68.56433427 -75.77669331 69.78671751 -79.5 72.3125 C-80.87671875 73.23482422 -80.87671875 73.23482422 -82.28125 74.17578125 C-83.62703125 75.07876953 -83.62703125 75.07876953 -85 76 C-89.71331828 79 -89.71331828 79 -92 79 C-92 77.68 -92 76.36 -92 75 C-95.465 75.99 -95.465 75.99 -99 77 C-99 77.66 -99 78.32 -99 79 C-100.95927063 80.7143618 -102.95880212 82.38405168 -105 84 C-105.66 83.67 -106.32 83.34 -107 83 C-104.90496688 80.67908008 -102.79749635 78.36981801 -100.6875 76.0625 C-100.09259766 75.40314453 -99.49769531 74.74378906 -98.88476562 74.06445312 C-98.01948242 73.12182617 -98.01948242 73.12182617 -97.13671875 72.16015625 C-96.60780029 71.57886963 -96.07888184 70.99758301 -95.53393555 70.39868164 C-94 69 -94 69 -91 68 C-91 70.31 -91 72.62 -91 75 C-86.44697671 73.51069332 -83.09753427 70.92642615 -79.4375 67.9375 C-78.19240776 66.93755376 -76.94629673 65.93887489 -75.69921875 64.94140625 C-75.07837402 64.44398926 -74.4575293 63.94657227 -73.81787109 63.43408203 C-71.17469014 61.34892961 -68.4646956 59.36624502 -65.75 57.375 C-55.2649502 49.50079704 -43.99845154 39.99690308 -38 28 C-33.52468445 29.40652774 -31.23728294 31.6797098 -28 35 C-26.68678304 35.70546682 -25.35601217 36.380764 -24 37 C-17.83930226 29.26288843 -12.99528073 20.98579545 -8.21386719 12.35083008 C-5.75371082 7.93513358 -3.3554394 3.81880961 0 0 Z " fill="#DFE6EF" transform="translate(254,61)"/>
<path d="M0 0 C5.34857992 1.47162066 8.35602218 5.05021838 12.0625 8.9375 C13.28023132 10.19885921 14.50021831 11.45804539 15.72265625 12.71484375 C16.28871582 13.29733887 16.85477539 13.87983398 17.43798828 14.47998047 C19.07161658 16.13569356 19.07161658 16.13569356 21.43359375 17.81640625 C21.95050781 18.20699219 22.46742188 18.59757812 23 19 C23 19.66 23 20.32 23 21 C23.66 21 24.32 21 25 21 C25 21.66 25 22.32 25 23 C25.66 23 26.32 23 27 23 C27 23.66 27 24.32 27 25 C27.99 25.33 28.98 25.66 30 26 C29.67 27.65 29.34 29.3 29 31 C27.93513145 30.10698344 26.87324959 29.2104053 25.8125 28.3125 C25.22082031 27.81363281 24.62914062 27.31476563 24.01953125 26.80078125 C21.58048472 24.62592545 19.30404373 22.31751767 17 20 C14.83419902 17.87235691 12.64182404 15.77513945 10.4375 13.6875 C9.87353516 13.13771484 9.30957031 12.58792969 8.72851562 12.02148438 C5.04590676 8.49768418 5.04590676 8.49768418 0 8 C-1.48767598 9.51549251 -1.48767598 9.51549251 -2.62109375 11.62109375 C-3.08193359 12.39259766 -3.54277344 13.16410156 -4.01757812 13.95898438 C-4.48615234 14.77689453 -4.95472656 15.59480469 -5.4375 16.4375 C-5.90220703 17.22060547 -6.36691406 18.00371094 -6.84570312 18.81054688 C-9.17679775 22.76072814 -11.41528056 26.75365976 -13.609375 30.78125 C-15.44313679 34.1003334 -17.42061809 37.10782234 -19.8125 40.0625 C-20.41707031 40.81660156 -21.02164063 41.57070312 -21.64453125 42.34765625 C-22.09183594 42.89292969 -22.53914063 43.43820313 -23 44 C-26.78781957 42.26224768 -29.05335536 39.94664464 -32 37 C-33.63377642 35.94712186 -35.29181597 34.9272999 -37 34 C-37.22816406 34.69738281 -37.45632812 35.39476562 -37.69140625 36.11328125 C-39.27574362 39.6082822 -41.45241373 42.30867279 -43.9375 45.1875 C-44.42404053 45.75484863 -44.91058105 46.32219727 -45.41186523 46.90673828 C-52.19600797 54.6740743 -59.67564421 61.3364281 -68.25 67.06640625 C-70.42926516 68.59870207 -72.49262327 70.16848407 -74.5625 71.83984375 C-75.18278076 72.34008057 -75.80306152 72.84031738 -76.44213867 73.35571289 C-77.66458071 74.34869772 -78.88118847 75.34892007 -80.09106445 76.35717773 C-83.33216585 78.98273367 -85.79402798 80.63700804 -90 81 C-90.33 79.02 -90.66 77.04 -91 75 C-96.18419194 79.32893185 -100.72706118 83.76564995 -105 89 C-104.21625 88.34 -103.4325 87.68 -102.625 87 C-100 85 -100 85 -98 85 C-98 84.34 -98 83.68 -98 83 C-95 81 -95 81 -91 81 C-91 82.32 -91 83.64 -91 85 C-89.49939872 84.10517423 -87.99955797 83.20907306 -86.5 82.3125 C-85.58863281 81.76980469 -84.67726562 81.22710937 -83.73828125 80.66796875 C-81.34374316 79.20938421 -79.01900372 77.68082179 -76.6875 76.125 C-74.2828308 74.61904555 -72.97588557 73.99580619 -70.125 73.5 C-68 74 -68 74 -66 77 C-65.01 77.66 -64.02 78.32 -63 79 C-65.66666667 79 -68.33333333 79 -71 79 C-71.99 79.495 -71.99 79.495 -73 80 C-75.125 79.5625 -75.125 79.5625 -77 79 C-77 79.66 -77 80.32 -77 81 C-79.475 81.495 -79.475 81.495 -82 82 C-82.33 82.99 -82.66 83.98 -83 85 C-85.21701147 86.58965571 -87.57862473 87.72327486 -90 89 C-91.32 88.01 -92.64 87.02 -94 86 C-94.5775 86.28875 -95.155 86.5775 -95.75 86.875 C-97.11676829 87.55838414 -98.49026752 88.22879151 -99.875 88.875 C-102.21981778 90.06222526 -102.21981778 90.06222526 -105.0625 92.125 C-108 94 -108 94 -111 94 C-111.46932521 90.4800609 -111.20485212 89.27084203 -109.0234375 86.38671875 C-108.14945313 85.49597656 -107.27546875 84.60523438 -106.375 83.6875 C-102.61313079 79.75512113 -99.24306299 75.84095474 -96.15625 71.36328125 C-95.7746875 70.91339844 -95.393125 70.46351562 -95 70 C-94.34 70 -93.68 70 -93 70 C-93 69.34 -93 68.68 -93 68 C-92.34 68 -91.68 68 -91 68 C-90.505 66.515 -90.505 66.515 -90 65 C-88.68 65.33 -87.36 65.66 -86 66 C-86 68.64 -86 71.28 -86 74 C-84.576875 73.01 -84.576875 73.01 -83.125 72 C-80 70 -80 70 -78 70 C-78 69.34 -78 68.68 -78 68 C-76.41113281 66.64306641 -76.41113281 66.64306641 -74.203125 65.1015625 C-73.4090625 64.53953125 -72.615 63.9775 -71.796875 63.3984375 C-70.53617188 62.52058594 -70.53617188 62.52058594 -69.25 61.625 C-67.60692441 60.47484709 -65.96622028 59.32129755 -64.328125 58.1640625 C-63.5949707 57.65311035 -62.86181641 57.1421582 -62.10644531 56.61572266 C-59.90290818 55.00505719 -59.90290818 55.00505719 -57.85449219 52.80224609 C-56 51 -56 51 -54 51 C-54 50.34 -54 49.68 -54 49 C-53.34 49 -52.68 49 -52 49 C-51.71125 48.401875 -51.4225 47.80375 -51.125 47.1875 C-50 45 -50 45 -48 42 C-47.34 42 -46.68 42 -46 42 C-45.74476563 41.27425781 -45.48953125 40.54851562 -45.2265625 39.80078125 C-43.93198926 36.8447016 -42.39544896 34.69435334 -40.375 32.1875 C-39.42753906 31.00220703 -39.42753906 31.00220703 -38.4609375 29.79296875 C-37.97882813 29.20128906 -37.49671875 28.60960938 -37 28 C-32.97171484 29.32188977 -30.8713094 30.86232974 -28.1875 34.125 C-27.58292969 34.84945312 -26.97835937 35.57390625 -26.35546875 36.3203125 C-25.90816406 36.87460938 -25.46085937 37.42890625 -25 38 C-21.76229522 35.02730308 -19.68123311 32.03150463 -17.5390625 28.203125 C-16.58386719 26.51703125 -16.58386719 26.51703125 -15.609375 24.796875 C-14.94724199 23.61496105 -14.28578746 22.43266675 -13.625 21.25 C-9.47736625 13.83615616 -5.37362535 6.60712233 0 0 Z " fill="#83A2AC" transform="translate(253,55)"/>
<path d="M0 0 C0.66 0 1.32 0 2 0 C2 71.94 2 143.88 2 218 C-1.96 218 -5.92 218 -10 218 C-10 217.67 -10 217.34 -10 217 C-7.03 216.67 -4.06 216.34 -1 216 C-0.07778488 212.26367257 -0.03365753 209.24772998 -0.5 205.4375 C-1.11215158 200.42203076 -1.11215158 200.42203076 -0.51112366 198.16033936 C0.08781279 195.62884631 0.07879958 193.41467457 0.02172852 190.81347656 C0.0016423 189.76196411 -0.01844391 188.71045166 -0.03913879 187.6270752 C-0.06618393 186.47654663 -0.09322906 185.32601807 -0.12109375 184.140625 C-0.17029785 181.61165779 -0.21927757 179.0826862 -0.26806641 176.55371094 C-0.29602124 175.19136265 -0.32412052 173.82901731 -0.35235596 172.4666748 C-0.50124737 165.19689069 -0.62207725 157.92662095 -0.73828125 150.65625 C-0.75043922 149.89661705 -0.7625972 149.1369841 -0.7751236 148.35433197 C-1.05069738 130.81984685 -1.12846786 113.28646393 -1.125 95.75 C-1.12493328 95.00552109 -1.12486656 94.26104218 -1.12479782 93.4940033 C-1.11704428 62.32306216 -0.65971623 31.16363687 0 0 Z " fill="#526A89" transform="translate(377,189)"/>
<path d="M0 0 C0.66 1.32 1.32 2.64 2 4 C-2.51306123 8.10763256 -7.07508661 12.15183531 -11.8125 16 C-12.52019531 16.5775 -13.22789062 17.155 -13.95703125 17.75 C-16 19 -16 19 -20 19 C-20.33 17.02 -20.66 15.04 -21 13 C-26.18419194 17.32893185 -30.72706118 21.76564995 -35 27 C-33.824375 26.01 -33.824375 26.01 -32.625 25 C-30 23 -30 23 -28 23 C-28 22.34 -28 21.68 -28 21 C-25 19 -25 19 -21 19 C-21 20.32 -21 21.64 -21 23 C-19.49939872 22.10517423 -17.99955797 21.20907306 -16.5 20.3125 C-15.13294922 19.49845703 -15.13294922 19.49845703 -13.73828125 18.66796875 C-11.34374316 17.20938421 -9.01900372 15.68082179 -6.6875 14.125 C-4.2828308 12.61904555 -2.97588557 11.99580619 -0.125 11.5 C2 12 2 12 4 15 C4.99 15.66 5.98 16.32 7 17 C4.33333333 17 1.66666667 17 -1 17 C-1.99 17.495 -1.99 17.495 -3 18 C-5.125 17.5625 -5.125 17.5625 -7 17 C-7 17.66 -7 18.32 -7 19 C-8.65 19.33 -10.3 19.66 -12 20 C-12.33 20.99 -12.66 21.98 -13 23 C-15.21701147 24.58965571 -17.57862473 25.72327486 -20 27 C-21.32 26.01 -22.64 25.02 -24 24 C-24.86625 24.433125 -24.86625 24.433125 -25.75 24.875 C-27.11676829 25.55838414 -28.49026752 26.22879151 -29.875 26.875 C-32.21981778 28.06222526 -32.21981778 28.06222526 -35.0625 30.125 C-38 32 -38 32 -41 32 C-41.46932521 28.4800609 -41.20485212 27.27084203 -39.0234375 24.38671875 C-38.14945313 23.49597656 -37.27546875 22.60523438 -36.375 21.6875 C-32.61313079 17.75512113 -29.24306299 13.84095474 -26.15625 9.36328125 C-25.7746875 8.91339844 -25.393125 8.46351562 -25 8 C-24.34 8 -23.68 8 -23 8 C-23 7.34 -23 6.68 -23 6 C-22.34 6 -21.68 6 -21 6 C-20.67 5.01 -20.34 4.02 -20 3 C-18.68 3.33 -17.36 3.66 -16 4 C-16 6.64 -16 9.28 -16 12 C-15.05125 11.34 -14.1025 10.68 -13.125 10 C-10 8 -10 8 -8 8 C-8 7.34 -8 6.68 -8 6 C-6.25 4.4921875 -6.25 4.4921875 -4 2.875 C-3.2575 2.33617188 -2.515 1.79734375 -1.75 1.2421875 C-0.88375 0.62730469 -0.88375 0.62730469 0 0 Z " fill="#91B1B4" transform="translate(183,117)"/>
<path d="M0 0 C5.32630354 3.65530635 9.81517337 7.70990693 14.3125 12.3125 C19.06746879 17.17109129 23.96695918 21.58354058 29.3046875 25.80859375 C32.22727888 28.18478761 34.98523063 30.6924 37.75 33.25 C41.66113 36.85250425 45.57827557 40.05218371 50 43 C49.505 43.99 49.505 43.99 49 45 C41.48046875 40.21484375 41.48046875 40.21484375 39.89013672 39.20263672 C38.45967981 38.29248033 37.0289716 37.38271889 35.59814453 36.47314453 C27.4933939 31.31930184 19.40430888 26.14116471 11.31640625 20.9609375 C4.55141989 16.62933931 -2.22044136 12.30875624 -9 8 C-7 7 -7 7 -4 7 C-2.68 4.69 -1.36 2.38 0 0 Z " fill="#D4DEEB" transform="translate(295,99)"/>
<path d="M0 0 C6.03291596 5.08409562 11.76372921 10.43652778 17.47851562 15.87304688 C18.16236328 16.51951172 18.84621094 17.16597656 19.55078125 17.83203125 C20.47370972 18.70952026 20.47370972 18.70952026 21.4152832 19.60473633 C22.96496031 21.08889654 22.96496031 21.08889654 25 22 C25 22.66 25 23.32 25 24 C25.66 24 26.32 24 27 24 C27 24.66 27 25.32 27 26 C27.58265625 26.268125 28.1653125 26.53625 28.765625 26.8125 C31.02786601 28.01480991 32.80576318 29.33825913 34.75 31 C35.67039062 31.7734375 35.67039062 31.7734375 36.609375 32.5625 C38 34 38 34 38 36 C38.61875 36.309375 39.2375 36.61875 39.875 36.9375 C41.25 37.625 42.625 38.3125 44 39 C44 39.66 44 40.32 44 41 C44.56203125 41.2578125 45.1240625 41.515625 45.703125 41.78125 C48.26704579 43.14169777 50.45226365 44.72788962 52.75 46.5 C53.54921875 47.1084375 54.3484375 47.716875 55.171875 48.34375 C55.77515625 48.8903125 56.3784375 49.436875 57 50 C57 50.66 57 51.32 57 52 C57.53625 52.226875 58.0725 52.45375 58.625 52.6875 C61.87720486 54.48477111 64.29921515 56.4219781 67 59 C67 60.32 67 61.64 67 63 C65.02 62.505 65.02 62.505 63 62 C63 61.34 63 60.68 63 60 C61.95972656 59.66935547 61.95972656 59.66935547 60.8984375 59.33203125 C57.28043243 57.66930925 54.56962503 55.30852148 51.625 52.6875 C50.38414692 51.60152555 49.14326033 50.51558939 47.90234375 49.4296875 C47.26280762 48.86604492 46.62327148 48.30240234 45.96435547 47.72167969 C44.01121341 46.00982811 42.04217446 44.31847412 40.06640625 42.6328125 C33.80013043 37.27685352 27.71552511 31.87290888 21.95703125 25.96484375 C20.11563808 24.11609971 18.22447937 22.39217474 16.25 20.6875 C15.30060547 19.86185547 15.30060547 19.86185547 14.33203125 19.01953125 C13.0147872 17.87880232 11.69534118 16.74057039 10.36865234 15.61083984 C8.54377933 14.04815266 6.74011332 12.46328115 4.9375 10.875 C4.3403418 10.37186279 3.74318359 9.86872559 3.12792969 9.3503418 C1.46484375 7.8671875 1.46484375 7.8671875 -1 5 C-0.87109375 2.1328125 -0.87109375 2.1328125 0 0 Z " fill="#6E89A6" transform="translate(283,82)"/>
<path d="M0 0 C5.34857992 1.47162066 8.35602218 5.05021838 12.0625 8.9375 C13.28023132 10.19885921 14.50021831 11.45804539 15.72265625 12.71484375 C16.28871582 13.29733887 16.85477539 13.87983398 17.43798828 14.47998047 C19.07161658 16.13569356 19.07161658 16.13569356 21.43359375 17.81640625 C21.95050781 18.20699219 22.46742188 18.59757812 23 19 C23 19.66 23 20.32 23 21 C23.66 21 24.32 21 25 21 C25 21.66 25 22.32 25 23 C25.66 23 26.32 23 27 23 C27 23.66 27 24.32 27 25 C27.99 25.33 28.98 25.66 30 26 C29.505 28.475 29.505 28.475 29 31 C27.93513145 30.10698344 26.87324959 29.2104053 25.8125 28.3125 C25.22082031 27.81363281 24.62914062 27.31476563 24.01953125 26.80078125 C21.58050448 24.62594306 19.3040067 22.31750015 17 20 C14.85501353 17.89320118 12.68340577 15.81688992 10.5 13.75 C9.94441406 13.20859375 9.38882812 12.6671875 8.81640625 12.109375 C5.69849308 9.17486849 3.47637562 7.14921252 -1 7 C-2.32 7.33 -3.64 7.66 -5 8 C-3.35 5.36 -1.7 2.72 0 0 Z " fill="#7E9CAE" transform="translate(253,55)"/>
<path d="M0 0 C0.66 0.99 1.32 1.98 2 3 C2.99 3.66 3.98 4.32 5 5 C2.33333333 5 -0.33333333 5 -3 5 C-3.66 5.33 -4.32 5.66 -5 6 C-7.125 5.5625 -7.125 5.5625 -9 5 C-9 5.66 -9 6.32 -9 7 C-10.65 7.33 -12.3 7.66 -14 8 C-14.33 8.99 -14.66 9.98 -15 11 C-17.21701147 12.58965571 -19.57862473 13.72327486 -22 15 C-23.32 14.01 -24.64 13.02 -26 12 C-26.86625 12.433125 -26.86625 12.433125 -27.75 12.875 C-29.11676829 13.55838414 -30.49026752 14.22879151 -31.875 14.875 C-34.21981778 16.06222526 -34.21981778 16.06222526 -37.0625 18.125 C-40 20 -40 20 -43 20 C-43.3125 17.8125 -43.3125 17.8125 -43 15 C-40.5 12.1875 -40.5 12.1875 -38 10 C-36.75453595 12.49092811 -37.2232422 13.41080733 -38 16 C-37.05125 15.175 -36.1025 14.35 -35.125 13.5 C-32.25 11 -32.25 11 -30 11 C-30 10.34 -30 9.68 -30 9 C-27 7 -27 7 -23 7 C-23 8.32 -23 9.64 -23 11 C-21.49939872 10.10517423 -19.99955797 9.20907306 -18.5 8.3125 C-17.58863281 7.76980469 -16.67726562 7.22710937 -15.73828125 6.66796875 C-13.34374316 5.20938421 -11.01900372 3.68082179 -8.6875 2.125 C-5.70465012 0.2569526 -3.59134731 -0.8450229 0 0 Z " fill="#94B7BB" transform="translate(185,129)"/>
<path d="M0 0 C0.495 0.495 0.495 0.495 1 1 C2.55948542 1.15686249 4.12542668 1.25076639 5.69140625 1.31640625 C7.10776367 1.37924805 7.10776367 1.37924805 8.55273438 1.44335938 C10.04256836 1.50233398 10.04256836 1.50233398 11.5625 1.5625 C13.05813477 1.62727539 13.05813477 1.62727539 14.58398438 1.69335938 C17.0558415 1.79980298 19.5278031 1.90181928 22 2 C22 2.33 22 2.66 22 3 C0.55 3 -20.9 3 -43 3 C-43 2.67 -43 2.34 -43 2 C-42.04287109 1.90912109 -42.04287109 1.90912109 -41.06640625 1.81640625 C-39.82697266 1.69072266 -39.82697266 1.69072266 -38.5625 1.5625 C-37.32693359 1.44068359 -37.32693359 1.44068359 -36.06640625 1.31640625 C-34.01337975 1.21069185 -34.01337975 1.21069185 -33 0 C-31.40005523 -0.07492132 -29.79687665 -0.08320616 -28.1953125 -0.0625 C-27.21949219 -0.05476562 -26.24367188 -0.04703125 -25.23828125 -0.0390625 C-23.17057168 -0.01311884 -21.10286334 0.01292208 -19.03515625 0.0390625 C-17.56755859 0.05066406 -17.56755859 0.05066406 -16.0703125 0.0625 C-15.17070801 0.07410156 -14.27110352 0.08570313 -13.34423828 0.09765625 C-2.25790432 -0.36417812 -2.25790432 -0.36417812 0 0 Z " fill="#68839B" transform="translate(317,162)"/>
<path d="M0 0 C4.38512877 1.44837282 7.27078187 3.68230233 10.75 6.6875 C11.80080363 7.59003374 12.85290017 8.49106424 13.90625 9.390625 C14.42445313 9.83341797 14.94265625 10.27621094 15.4765625 10.73242188 C18.36331439 13.13434749 21.40894245 15.33056663 24.453125 17.52734375 C24.96359375 18.01332031 25.4740625 18.49929687 26 19 C26 19.99 26 20.98 26 22 C23.03 22 20.06 22 17 22 C19 20 19 20 21 19 C18.53350517 14.79245 15.45310178 13.70027523 11 12 C10.34 11.67 9.68 11.34 9 11 C9 10.34 9 9.68 9 9 C7.88625 8.87625 6.7725 8.7525 5.625 8.625 C2 8 2 8 0 6 C0 4 0 2 0 0 Z " fill="#6581A5" transform="translate(351,143)"/>
<path d="M0 0 C4.59968853 3.27631446 8.89610565 6.74702707 13.0625 10.5625 C16.8720318 14.04819215 20.72071282 17.11613255 25 20 C24.67 20.66 24.34 21.32 24 22 C22.39583333 20.97916667 20.79166667 19.95833333 19.1875 18.9375 C18.18460937 18.29941406 17.18171875 17.66132813 16.1484375 17.00390625 C14.13237917 15.72073265 12.11671675 14.43693669 10.1015625 13.15234375 C4.75026179 9.74220114 -0.61330926 6.35397725 -6 3 C-3.92446352 2.4465236 -2.15634036 2 0 2 C0 1.34 0 0.68 0 0 Z " fill="#C8D6E9" transform="translate(320,122)"/>
<path d="M0 0 C0.33 0 0.66 0 1 0 C1 24.09 1 48.18 1 73 C-2.96 73 -6.92 73 -11 73 C-11 72.67 -11 72.34 -11 72 C-6.545 71.505 -6.545 71.505 -2 71 C-1.05888119 67.20784481 -1.0397734 64.12008734 -1.5 60.25 C-1.7053974 58.50412209 -1.8822837 56.75397282 -2 55 C-1.505 54.505 -1.505 54.505 -1 54 C-0.87700834 52.31290653 -0.82214742 50.62079097 -0.79467773 48.92944336 C-0.77473251 47.84839828 -0.75478729 46.76735321 -0.73423767 45.65354919 C-0.71752518 44.4775264 -0.70081268 43.3015036 -0.68359375 42.08984375 C-0.6524221 40.29408653 -0.6524221 40.29408653 -0.62062073 38.46205139 C-0.55499721 34.62059513 -0.49618097 30.77906799 -0.4375 26.9375 C-0.39432695 24.34048733 -0.35071307 21.74348194 -0.30664062 19.14648438 C-0.19930284 12.76439883 -0.09756069 6.38224207 0 0 Z " fill="#58738C" transform="translate(378,334)"/>
<path d="M0 0 C4 2 4 2 4.71484375 3.83984375 C4.82505859 4.87818359 4.82505859 4.87818359 4.9375 5.9375 C5.02902344 6.62714844 5.12054688 7.31679688 5.21484375 8.02734375 C5 10 5 10 3.52734375 11.30078125 C0.46817988 14.70419885 1.58161916 19.94119334 1.70703125 24.3046875 C2.05386038 28.67935888 2.64073117 31.33002627 5 35 C5.99 35.33 6.98 35.66 8 36 C8.33 37.98 8.66 39.96 9 42 C5.64379729 40.61122646 3.92701272 39.08322035 2 36 C2 35.34 2 34.68 2 34 C1.34 34 0.68 34 0 34 C0 22.78 0 11.56 0 0 Z " fill="#8098A7" transform="translate(207,261)"/>
<path d="M0 0 C4.5135522 1.42319214 7.03879143 3.69179266 10.3125 7.0625 C11.19550781 7.96097656 12.07851563 8.85945313 12.98828125 9.78515625 C15 12 15 12 15 13 C12.375 13.375 12.375 13.375 9 13 C7.546875 11.62890625 7.546875 11.62890625 6.125 9.9375 C3.9656126 7.46397659 3.9656126 7.46397659 0.84375 6.82421875 C-1.62812874 7.12092963 -1.62812874 7.12092963 -5 8 C-3.35 5.36 -1.7 2.72 0 0 Z " fill="#7D9CAB" transform="translate(253,55)"/>
<path d="M0 0 C5.39882424 4.59474404 10.71333087 9.27676273 16 14 C15.34 15.32 14.68 16.64 14 18 C2.48615917 9.83564014 2.48615917 9.83564014 -1 5 C-0.9375 2.0625 -0.9375 2.0625 0 0 Z " fill="#7B99AF" transform="translate(283,82)"/>
<path d="M0 0 C1.46484375 1.30208333 2.9296875 2.60416667 4.39453125 3.90625 C6.089448 5.28151241 6.089448 5.28151241 9 5 C9.66 5.33 10.32 5.66 11 6 C11 6.99 11 7.98 11 9 C8.89590361 9.02701408 6.79170822 9.04640223 4.6875 9.0625 C3.51574219 9.07410156 2.34398437 9.08570313 1.13671875 9.09765625 C-2 9 -2 9 -5 8 C-4 6 -3 4 -2 2 C-1.34 2 -0.68 2 0 2 C0 1.34 0 0.68 0 0 Z " fill="#79A1B2" transform="translate(239,398)"/>
<path d="M0 0 C1 2 1 2 0.3515625 4.7890625 C-1.15940588 8.37870415 -2.95704869 10.55459433 -5.625 13.375 C-6.44226563 14.24898437 -7.25953125 15.12296875 -8.1015625 16.0234375 C-8.72804687 16.67570312 -9.35453125 17.32796875 -10 18 C-10.82282482 15.6960905 -11.1444227 14.428048 -10.3515625 12.078125 C-8.5985106 9.38268104 -6.55265596 7.11431218 -4.375 4.75 C-3.55773437 3.85796875 -2.74046875 2.9659375 -1.8984375 2.046875 C-1.27195313 1.37140625 -0.64546875 0.6959375 0 0 Z " fill="#8DADB0" transform="translate(158,126)"/>
<path d="M0 0 C3.78520613 0.54074373 5.59177555 2.07572746 8 5 C8 5.99 8 6.98 8 8 C8.66 8 9.32 8 10 8 C10.33 9.98 10.66 11.96 11 14 C11.66 14 12.32 14 13 14 C12.67 14.99 12.34 15.98 12 17 C10.18232326 14.7331445 8.37076857 12.46184027 6.5625 10.1875 C5.7880957 9.22360352 5.7880957 9.22360352 4.99804688 8.24023438 C4.50498047 7.61826172 4.01191406 6.99628906 3.50390625 6.35546875 C3.04830322 5.78465576 2.5927002 5.21384277 2.12329102 4.62573242 C1 3 1 3 0 0 Z " fill="#748FA3" transform="translate(269,305)"/>
<path d="M0 0 C1.875 0.1875 1.875 0.1875 4 1 C5.52164099 3.89111788 6 5.71823412 6 9 C6.99 9 7.98 9 9 9 C9 9.66 9 10.32 9 11 C7.68 11.33 6.36 11.66 5 12 C3.96386967 10.76265016 2.94652198 9.50955363 1.9375 8.25 C1.36902344 7.55390625 0.80054688 6.8578125 0.21484375 6.140625 C-1 4 -1 4 -0.68359375 1.734375 C-0.45800781 1.16203125 -0.23242188 0.5896875 0 0 Z " fill="#7D9BAD" transform="translate(243,268)"/>
<path d="M0 0 C2.96404505 2.80804268 5.44499019 5.18315774 7 9 C4.09399739 10.25664978 2.20395416 11 -1 11 C-0.67 7.37 -0.34 3.74 0 0 Z " fill="#7594AF" transform="translate(273,277)"/>
<path d="M0 0 C6.75 2.75 6.75 2.75 9 5 C8.625 7.625 8.625 7.625 8 10 C6.87105124 9.06725891 5.74699124 8.12859878 4.625 7.1875 C3.99851562 6.66542969 3.37203125 6.14335938 2.7265625 5.60546875 C1 4 1 4 -1 1 C-0.67 0.67 -0.34 0.34 0 0 Z " fill="#7593AE" transform="translate(306,106)"/>
<path d="M0 0 C3.16717283 1.58358642 4.73268318 2.45263699 6.3125 5.6875 C6.6528125 6.8321875 6.6528125 6.8321875 7 8 C4.36 8 1.72 8 -1 8 C-1.93065133 5.39417629 -2.14917407 4.35801776 -1.0625 1.75 C-0.711875 1.1725 -0.36125 0.595 0 0 Z " fill="#7392AA" transform="translate(258,327)"/>
<path d="M0 0 C0.5775 0.61875 1.155 1.2375 1.75 1.875 C3.80249821 3.81347053 5.43366582 4.90014249 8 6 C7.01 6 6.02 6 5 6 C6.32 7.32 7.64 8.64 9 10 C8.67 10.99 8.34 11.98 8 13 C4.7 9.7 1.4 6.4 -2 3 C-1.34 2.67 -0.68 2.34 0 2 C0 1.34 0 0.68 0 0 Z " fill="#6E879E" transform="translate(260,196)"/>
<path d="M0 0 C3.60146869 2.05798211 6.93204301 4.19501075 10 7 C10 7.99 10 8.98 10 10 C7.03 10 4.06 10 1 10 C3 8 3 8 5 7 C4.175 6.21625 3.35 5.4325 2.5 4.625 C0 2 0 2 0 0 Z " fill="#5B708F" transform="translate(367,155)"/>
<path d="M0 0 C1.34444159 0.90029571 2.67531438 1.82088022 4 2.75 C5.11375 3.51570312 5.11375 3.51570312 6.25 4.296875 C6.8275 4.85890625 7.405 5.4209375 8 6 C8 7.32 8 8.64 8 10 C6.68 9.67 5.36 9.34 4 9 C4 8.34 4 7.68 4 7 C2.68 6.34 1.36 5.68 0 5 C0 3.35 0 1.7 0 0 Z " fill="#6783A4" transform="translate(342,135)"/>
<path d="M0 0 C1.32 0.66 2.64 1.32 4 2 C4 2.99 4 3.98 4 5 C3.01 4.67 2.02 4.34 1 4 C0.67 4.66 0.34 5.32 0 6 C-1.64646685 7.68662458 -3.31183067 9.35511706 -5 11 C-5.66 10.67 -6.32 10.34 -7 10 C-3.535 5.05 -3.535 5.05 0 0 Z " fill="#D4DFED" transform="translate(254,61)"/>
<path d="M0 0 C1.26237731 2.52475462 1.09856404 4.31200466 1.0625 7.125 C1.05347656 8.03507812 1.04445313 8.94515625 1.03515625 9.8828125 C1.02355469 10.58148438 1.01195312 11.28015625 1 12 C-1.46446554 8.82449818 -3.26637814 5.63235056 -5 2 C-2 0 -2 0 0 0 Z " fill="#D2DEF0" transform="translate(280,103)"/>
<path d="M0 0 C1.14926266 0.95421808 2.29430541 1.91352045 3.4375 2.875 C4.07558594 3.40867188 4.71367187 3.94234375 5.37109375 4.4921875 C7 6 7 6 8 8 C2.58860759 8.36075949 2.58860759 8.36075949 0.0625 6.8125 C-1 5 -1 5 -0.6875 2.3125 C-0.460625 1.549375 -0.23375 0.78625 0 0 Z " fill="#748D9F" transform="translate(260,60)"/>
<path d="M0 0 C0.84961471 3.11309207 1.24135679 4.94435253 0 8 C-2.0625 10.25 -2.0625 10.25 -4 12 C-4.8125 9.9375 -4.8125 9.9375 -5 7 C-3.58973707 4.45310725 -1.86023965 2.23357494 0 0 Z " fill="#7896A2" transform="translate(236,83)"/>
<path d="M0 0 C2.31 1.98 4.62 3.96 7 6 C6.34 6.66 5.68 7.32 5 8 C2.06546739 7.63318342 1.13562754 7.13562754 -1 5 C-0.625 2.375 -0.625 2.375 0 0 Z " fill="#7190A4" transform="translate(283,82)"/>
<path d="M0 0 C0.33 0 0.66 0 1 0 C1 4.95 1 9.9 1 15 C-2 14 -2 14 -3.1875 11.9375 C-3.455625 11.298125 -3.72375 10.65875 -4 10 C-2.68 9.67 -1.36 9.34 0 9 C-0.185625 8.071875 -0.37125 7.14375 -0.5625 6.1875 C-1 3 -1 3 0 0 Z " fill="#6E879D" transform="translate(292,320)"/>
<path d="M0 0 C0.99 0.66 1.98 1.32 3 2 C-0.465 4.97 -0.465 4.97 -4 8 C-4.66 7.01 -5.32 6.02 -6 5 C-5.67 4.34 -5.34 3.68 -5 3 C-4.34 3 -3.68 3 -3 3 C-2.67 2.34 -2.34 1.68 -2 1 C-1.34 0.67 -0.68 0.34 0 0 Z " fill="#89ACB6" transform="translate(204,101)"/>
<path d="M0 0 C0.33 0 0.66 0 1 0 C1 4.29 1 8.58 1 13 C-2.96 13 -6.92 13 -11 13 C-11 12.67 -11 12.34 -11 12 C-6.545 11.505 -6.545 11.505 -2 11 C-1.34 7.37 -0.68 3.74 0 0 Z " fill="#506981" transform="translate(378,394)"/>
<path d="M0 0 C0.66 1.32 1.32 2.64 2 4 C-0.97 6.475 -0.97 6.475 -4 9 C-5 6 -5 6 -4 3 C-1.9375 1.3125 -1.9375 1.3125 0 0 Z " fill="#93B2BA" transform="translate(183,117)"/>
<path d="M0 0 C0.99 0.33 1.98 0.66 3 1 C2.67 2.65 2.34 4.3 2 6 C1.360625 6.103125 0.72125 6.20625 0.0625 6.3125 C-0.618125 6.539375 -1.29875 6.76625 -2 7 C-2.33 7.99 -2.66 8.98 -3 10 C-3.66 10 -4.32 10 -5 10 C-3.66511872 6.40608886 -2.03977277 3.24509304 0 0 Z " fill="#7893A5" transform="translate(244,69)"/>
<path d="M0 0 C0.99 0.33 1.98 0.66 3 1 C3 2.32 3 3.64 3 5 C3.66 5.33 4.32 5.66 5 6 C2.69 6.33 0.38 6.66 -2 7 C-2 5.02 -2 3.04 -2 1 C-1.34 0.67 -0.68 0.34 0 0 Z " fill="#92B5B8" transform="translate(124,400)"/>
<path d="M0 0 C0.99 0 1.98 0 3 0 C3.33 0.99 3.66 1.98 4 3 C2.68 3.33 1.36 3.66 0 4 C-0.33 5.65 -0.66 7.3 -1 9 C-1.99 9 -2.98 9 -4 9 C-2.25 2.25 -2.25 2.25 0 0 Z " fill="#95B6B8" transform="translate(132,155)"/>
<path d="M0 0 C0.99 0 1.98 0 3 0 C3 0.66 3 1.32 3 2 C3.99 2 4.98 2 6 2 C7.06652192 4.30368736 8.06421005 6.64018187 9 9 C8.67 9.66 8.34 10.32 8 11 C5 7.25 5 7.25 5 5 C4.34 5 3.68 5 3 5 C1.375 2.5 1.375 2.5 0 0 Z " fill="#69819C" transform="translate(280,387)"/>
<path d="M0 0 C0.12375 0.639375 0.2475 1.27875 0.375 1.9375 C0.684375 2.9584375 0.684375 2.9584375 1 4 C1.66 4.33 2.32 4.66 3 5 C2 7 2 7 0.0625 7.75 C-0.618125 7.8325 -1.29875 7.915 -2 8 C-2.66 7.34 -3.32 6.68 -4 6 C-4 5.01 -4 4.02 -4 3 C-3.01 2.67 -2.02 2.34 -1 2 C-0.67 1.34 -0.34 0.68 0 0 Z " fill="#78A1B0" transform="translate(236,320)"/>
<path d="M0 0 C0.99 0.33 1.98 0.66 3 1 C2.21625 1.53625 1.4325 2.0725 0.625 2.625 C-2.35429078 5.3205488 -2.90587642 7.21264914 -4 11 C-4.99 11.495 -4.99 11.495 -6 12 C-6.375 9.375 -6.375 9.375 -6 6 C-4.19946381 3.66246179 -2.2392198 1.95931733 0 0 Z " fill="#84A4A7" transform="translate(153,132)"/>
<path d="M0 0 C0.66 0.66 1.32 1.32 2 2 C1.73314868 6.66989808 -0.62840087 10.09833692 -3 14 C-4.37095624 10.30962722 -3.60010967 8.29116165 -2.0625 4.75 C-1.68222656 3.85796875 -1.30195313 2.9659375 -0.91015625 2.046875 C-0.60980469 1.37140625 -0.30945313 0.6959375 0 0 Z " fill="#8CABB9" transform="translate(241,114)"/>
<path d="M0 0 C1.32 0.66 2.64 1.32 4 2 C4 2.99 4 3.98 4 5 C-0.29 5 -4.58 5 -9 5 C-9 4.67 -9 4.34 -9 4 C-6.36 4 -3.72 4 -1 4 C-0.67 2.68 -0.34 1.36 0 0 Z " fill="#7B93A2" transform="translate(246,402)"/>
<path d="M0 0 C0.99 0.33 1.98 0.66 3 1 C4.25703929 4.77111786 4.25703929 7.22888214 3 11 C1.68 9.35 0.36 7.7 -1 6 C-0.34 6 0.32 6 1 6 C0.34 4.35 -0.32 2.7 -1 1 C-0.67 0.67 -0.34 0.34 0 0 Z " fill="#82A2B4" transform="translate(252,344)"/>
<path d="M0 0 C0.66 0.33 1.32 0.66 2 1 C2 1.66 2 2.32 2 3 C2.66 3 3.32 3 4 3 C4.66 4.65 5.32 6.3 6 8 C3.69 7.34 1.38 6.68 -1 6 C-0.67 4.02 -0.34 2.04 0 0 Z " fill="#7F9DA8" transform="translate(211,198)"/>
<path d="M0 0 C0.99 0.99 1.98 1.98 3 3 C1.75 5 1.75 5 0 7 C-1.32 7 -2.64 7 -4 7 C-4 6.01 -4 5.02 -4 4 C-3.01 4 -2.02 4 -1 4 C-0.67 2.68 -0.34 1.36 0 0 Z " fill="#9ABABD" transform="translate(167,129)"/>
<path d="M0 0 C2.31 1.65 4.62 3.3 7 5 C5.68 5.99 4.36 6.98 3 8 C0.9375 6.25 0.9375 6.25 -1 4 C-0.67 2.68 -0.34 1.36 0 0 Z " fill="#7B94AE" transform="translate(328,123)"/>
<path d="M0 0 C1.32 0.33 2.64 0.66 4 1 C4 3.97 4 6.94 4 10 C3.67 10 3.34 10 3 10 C2.67 8.02 2.34 6.04 2 4 C0.35 4.33 -1.3 4.66 -3 5 C-3 4.34 -3 3.68 -3 3 C-2.34 3 -1.68 3 -1 3 C-0.67 2.01 -0.34 1.02 0 0 Z " fill="#799397" transform="translate(163,120)"/>
<path d="M0 0 C0.25 7.625 0.25 7.625 -2 11 C-3.25664978 8.09399739 -4 6.20395416 -4 3 C-1.44444444 0 -1.44444444 0 0 0 Z " fill="#C8DDEA" transform="translate(262,88)"/>
<path d="M0 0 C2.475 0.99 2.475 0.99 5 2 C5 2.66 5 3.32 5 4 C5.66 4 6.32 4 7 4 C6.67 4.99 6.34 5.98 6 7 C3.525 6.01 3.525 6.01 1 5 C1 4.01 1 3.02 1 2 C0.34 1.67 -0.32 1.34 -1 1 C-0.67 0.67 -0.34 0.34 0 0 Z " fill="#819FAB" transform="translate(232,389)"/>
<path d="M0 0 C0 0.66 0 1.32 0 2 C-1.65 2.66 -3.3 3.32 -5 4 C-5.99 2.35 -6.98 0.7 -8 -1 C-4.59745511 -2.2151946 -3.06748874 -1.86240388 0 0 Z " fill="#88A5B4" transform="translate(231,315)"/>
<path d="M0 0 C2.5625 2.25 2.5625 2.25 5 5 C4.8125 7.3125 4.8125 7.3125 4 9 C1.24338912 6.51015791 -0.60746455 4.79450934 -1 1 C-0.67 0.67 -0.34 0.34 0 0 Z " fill="#7F9CAC" transform="translate(233,293)"/>
<path d="M0 0 C3.7952131 1.49097658 5.61042731 3.75700849 8 7 C7.34 7.66 6.68 8.32 6 9 C4.99406757 7.8803014 3.9954151 6.7540588 3 5.625 C2.443125 4.99851563 1.88625 4.37203125 1.3125 3.7265625 C0 2 0 2 0 0 Z " fill="#7F96A5" transform="translate(211,230)"/>
<path d="M0 0 C1.98 0.66 3.96 1.32 6 2 C6 3.32 6 4.64 6 6 C4.02 5.34 2.04 4.68 0 4 C0 2.68 0 1.36 0 0 Z " fill="#6D8EAF" transform="translate(320,129)"/>
<path d="M0 0 C0.33 0.99 0.66 1.98 1 3 C-0.28725907 4.70250393 -1.62131719 6.37064759 -3 8 C-3 8.66 -3 9.32 -3 10 C-4.65 10.66 -6.3 11.32 -8 12 C-6.59023295 8.96147295 -4.91129772 6.4060405 -2.875 3.75 C-2.06675781 2.69039063 -2.06675781 2.69039063 -1.2421875 1.609375 C-0.83226562 1.07828125 -0.42234375 0.5471875 0 0 Z " fill="#92AFBB" transform="translate(226,118)"/>
<path d="M0 0 C0.8125 1.6875 0.8125 1.6875 1 4 C-1.4375 6.75 -1.4375 6.75 -4 9 C-4 6.32115341 -3.88590541 4.49664253 -3 2 C-2.01 1.34 -1.02 0.68 0 0 Z " fill="#86A7AA" transform="translate(178,121)"/>
<path d="M0 0 C0.66 0 1.32 0 2 0 C2.66 0.66 3.32 1.32 4 2 C4.66 1.67 5.32 1.34 6 1 C6 2.98 6 4.96 6 7 C5.34 6.34 4.68 5.68 4 5 C2.02 5.99 2.02 5.99 0 7 C0 4.69 0 2.38 0 0 Z " fill="#A7C2C7" transform="translate(158,125)"/>
<path d="M0 0 C0.66 0 1.32 0 2 0 C2.6875 2.3125 2.6875 2.3125 3 5 C1.5625 6.8125 1.5625 6.8125 0 8 C-1.32 7.34 -2.64 6.68 -4 6 C-3 4 -3 4 0 3 C0 2.01 0 1.02 0 0 Z " fill="#8DAAB7" transform="translate(230,91)"/>
<path d="M0 0 C0.33 0 0.66 0 1 0 C1.08333357 4.8333472 0.95261487 9.23692563 0 14 C-0.33 14 -0.66 14 -1 14 C-1.22226864 12.23086176 -1.42733873 10.45955629 -1.625 8.6875 C-1.74101562 7.70136719 -1.85703125 6.71523438 -1.9765625 5.69921875 C-2 3 -2 3 0 0 Z " fill="#627D9D" transform="translate(378,386)"/>
<path d="M0 0 C0.66 0 1.32 0 2 0 C2 0.66 2 1.32 2 2 C3.98 2 5.96 2 8 2 C8 3.32 8 4.64 8 6 C5.6875 5.8125 5.6875 5.8125 3 5 C1.1875 2.4375 1.1875 2.4375 0 0 Z " fill="#7592A6" transform="translate(254,286)"/>
<path d="M0 0 C0.66 0.33 1.32 0.66 2 1 C2.625 3.5625 2.625 3.5625 3 6 C1.68 6.99 0.36 7.98 -1 9 C-1.09765625 2.84765625 -1.09765625 2.84765625 -1 1 C-0.67 0.67 -0.34 0.34 0 0 Z " fill="#83AAB6" transform="translate(209,265)"/>
<path d="M0 0 C1.65 0.33 3.3 0.66 5 1 C4.34 2.98 3.68 4.96 3 7 C2.34 7 1.68 7 1 7 C-0.0625 4.625 -0.0625 4.625 -1 2 C-0.67 1.34 -0.34 0.68 0 0 Z " fill="#7697AA" transform="translate(234,256)"/>
<path d="M0 0 C3.28788824 3.11016455 5.83735988 6.01618925 8 10 C6.25 9.9375 6.25 9.9375 4 9 C1.99159505 6.29950956 0 3.44873267 0 0 Z " fill="#73919E" transform="translate(232,225)"/>
<path d="M0 0 C2.52588702 2.36292656 3.88820837 3.66462511 5 7 C1.73045798 6.43628586 0.17424117 5.50037734 -2 3 C-1.34 2.01 -0.68 1.02 0 0 Z " fill="#7998A7" transform="translate(220,209)"/>
<path d="M0 0 C0.66 0.33 1.32 0.66 2 1 C1.57507874 2.29585916 1.13454118 3.5866044 0.6875 4.875 C0.44386719 5.59429687 0.20023438 6.31359375 -0.05078125 7.0546875 C-1 9 -1 9 -4 11 C-3.5247412 9.35303396 -3.04468109 7.70745272 -2.5625 6.0625 C-2.29566406 5.14597656 -2.02882812 4.22945313 -1.75390625 3.28515625 C-1 1 -1 1 0 0 Z " fill="#8AA6B5" transform="translate(249,95)"/>
<path d="M0 0 C2 1 2 1 2.9375 3 C3.8891846 5.34608221 3.8891846 5.34608221 7 6 C5.02 6.99 5.02 6.99 3 8 C1.5 6.8125 1.5 6.8125 0 5 C-0.1875 2.3125 -0.1875 2.3125 0 0 Z " fill="#7594AB" transform="translate(293,399)"/>
<path d="M0 0 C0.99 0.33 1.98 0.66 3 1 C3.33 2.98 3.66 4.96 4 7 C4.66 7 5.32 7 6 7 C5.67 7.99 5.34 8.98 5 10 C3.02 7.36 1.04 4.72 -1 2 C-0.67 1.34 -0.34 0.68 0 0 Z " fill="#657D99" transform="translate(276,312)"/>
<path d="M0 0 C0.66 0 1.32 0 2 0 C2 0.66 2 1.32 2 2 C2.99 1.67 3.98 1.34 5 1 C5.99 2.65 6.98 4.3 8 6 C7.34 6 6.68 6 6 6 C6 5.34 6 4.68 6 4 C4.35 4.33 2.7 4.66 1 5 C0.67 3.35 0.34 1.7 0 0 Z " fill="#7B9CAC" transform="translate(242,242)"/>
<path d="M0 0 C1.9375 0.6875 1.9375 0.6875 4 2 C4.75 4.625 4.75 4.625 5 7 C1.26360784 5.75453595 0.81243487 4.36595047 -1 1 C-0.67 0.67 -0.34 0.34 0 0 Z " fill="#7290A3" transform="translate(235,327)"/>
<path d="M0 0 C0.99 0 1.98 0 3 0 C2.34 2.31 1.68 4.62 1 7 C0.01 6.34 -0.98 5.68 -2 5 C-1.34 3.35 -0.68 1.7 0 0 Z " fill="#6D8CA6" transform="translate(285,320)"/>
<path d="M0 0 C0.625 1.8125 0.625 1.8125 1 4 C0.01 5.485 0.01 5.485 -1 7 C-2.32 5.02 -3.64 3.04 -5 1 C-2 0 -2 0 0 0 Z " fill="#6E8BA7" transform="translate(268,297)"/>
<path d="M0 0 C1.32 0 2.64 0 4 0 C4 1.98 4 3.96 4 6 C2.02 4.68 0.04 3.36 -2 2 C-1.34 1.34 -0.68 0.68 0 0 Z " fill="#7994B0" transform="translate(338,134)"/>
<path d="M0 0 C1.32 0.66 2.64 1.32 4 2 C4 2.99 4 3.98 4 5 C2.35 4.67 0.7 4.34 -1 4 C-0.67 2.68 -0.34 1.36 0 0 Z " fill="#6A889E" transform="translate(298,97)"/>
<path d="M0 0 C0.99 0 1.98 0 3 0 C3 1.65 3 3.3 3 5 C1.68 5.33 0.36 5.66 -1 6 C-1.042721 4.33388095 -1.04063832 2.66617115 -1 1 C-0.67 0.67 -0.34 0.34 0 0 Z " fill="#85A3B3" transform="translate(253,84)"/>
<path d="M0 0 C1.65 0 3.3 0 5 0 C3.92598892 2.91517292 3.22189824 4.77810176 1 7 C0.67 4.69 0.34 2.38 0 0 Z " fill="#8DABB7" transform="translate(236,82)"/>
<path d="M0 0 C1.65 1.65 3.3 3.3 5 5 C4.67 5.66 4.34 6.32 4 7 C2.68 6.67 1.36 6.34 0 6 C0 4.02 0 2.04 0 0 Z " fill="#8398B0" transform="translate(296,374)"/>
<path d="M0 0 C4.875 4.75 4.875 4.75 6 7 C4.35 7 2.7 7 1 7 C0.67 4.69 0.34 2.38 0 0 Z " fill="#6D879C" transform="translate(266,336)"/>
<path d="M0 0 C1.98 0.495 1.98 0.495 4 1 C3.34 2.65 2.68 4.3 2 6 C1.01 5.34 0.02 4.68 -1 4 C-0.67 2.68 -0.34 1.36 0 0 Z " fill="#7293A3" transform="translate(243,268)"/>
<path d="M0 0 C0.33 1.32 0.66 2.64 1 4 C-1.97 6.475 -1.97 6.475 -5 9 C-5.66 8.67 -6.32 8.34 -7 8 C-4.69 5.36 -2.38 2.72 0 0 Z " fill="#C7E5E8" transform="translate(154,136)"/>
<path d="M0 0 C0.66 0.33 1.32 0.66 2 1 C2 1.66 2 2.32 2 3 C1.34 3 0.68 3 0 3 C0 3.66 0 4.32 0 5 C-0.99 4.67 -1.98 4.34 -3 4 C-3.99 4 -4.98 4 -6 4 C-3.94766315 1.7522025 -2.99332739 0.9977758 0 0 Z " fill="#83A9B3" transform="translate(220,129)"/>
<path d="M0 0 C0.33 0.66 0.66 1.32 1 2 C1.99 2.33 2.98 2.66 4 3 C4 3.66 4 4.32 4 5 C2.68 5 1.36 5 0 5 C0 4.34 0 3.68 0 3 C-1.32 2.67 -2.64 2.34 -4 2 C-2.68 1.34 -1.36 0.68 0 0 Z " fill="#789BB4" transform="translate(283,384)"/>
<path d="M0 0 C1.32 0.33 2.64 0.66 4 1 C4 1.99 4 2.98 4 4 C4.66 4 5.32 4 6 4 C5.67 4.99 5.34 5.98 5 7 C3.29115995 5.37660195 1.62553283 3.70680947 0 2 C0 1.34 0 0.68 0 0 Z " fill="#829AA8" transform="translate(240,335)"/>
<path d="M0 0 C3.10551666 0 4.35261084 0.5393715 7 2 C7 2.66 7 3.32 7 4 C4.69 3.67 2.38 3.34 0 3 C0 2.01 0 1.02 0 0 Z " fill="#7C9DB2" transform="translate(258,331)"/>
<path d="M0 0 C1.33333333 2.66666667 2.66666667 5.33333333 4 8 C3.01 8 2.02 8 1 8 C1 7.34 1 6.68 1 6 C0.34 6 -0.32 6 -1 6 C-0.67 4.02 -0.34 2.04 0 0 Z " fill="#87A3AF" transform="translate(208,289)"/>
<path d="M0 0 C0.66 0.33 1.32 0.66 2 1 C2 1.66 2 2.32 2 3 C2.66 3 3.32 3 4 3 C4.33 4.32 4.66 5.64 5 7 C4.01 7 3.02 7 2 7 C0.25 5.1875 0.25 5.1875 -1 3 C-0.67 2.01 -0.34 1.02 0 0 Z " fill="#78929D" transform="translate(211,265)"/>
<path d="M0 0 C1.32 0 2.64 0 4 0 C4.33 2.31 4.66 4.62 5 7 C3.29115995 5.37660195 1.62553283 3.70680947 0 2 C0 1.34 0 0.68 0 0 Z " fill="#7897A8" transform="translate(225,248)"/>
<path d="M0 0 C1.98 0.495 1.98 0.495 4 1 C4.33 2.32 4.66 3.64 5 5 C2.03 4.505 2.03 4.505 -1 4 C-0.67 2.68 -0.34 1.36 0 0 Z " fill="#6389AF" transform="translate(333,138)"/>
<path d="M0 0 C2.0625 0.4375 2.0625 0.4375 4 1 C3.67 2.65 3.34 4.3 3 6 C1.68 4.35 0.36 2.7 -1 1 C-0.67 0.67 -0.34 0.34 0 0 Z " fill="#8BA8B2" transform="translate(220,308)"/>
<path d="M0 0 C1.32 0.33 2.64 0.66 4 1 C3.67 2.65 3.34 4.3 3 6 C2.01 6.33 1.02 6.66 0 7 C0 4.69 0 2.38 0 0 Z " fill="#7B9BB3" transform="translate(268,299)"/>
<path d="M0 0 C1.32 1.32 2.64 2.64 4 4 C2.68 4.99 1.36 5.98 0 7 C-1.04449911 3.86650268 -0.93423645 3.01031744 0 0 Z " fill="#6A8B9D" transform="translate(276,281)"/>
<path d="M0 0 C1.98 0 3.96 0 6 0 C5.34 1.65 4.68 3.3 4 5 C2 3.625 2 3.625 0 2 C0 1.34 0 0.68 0 0 Z " fill="#6D8797" transform="translate(250,189)"/>
<path d="M0 0 C0.99 0.99 1.98 1.98 3 3 C2 4 2 4 -1.5625 4.0625 C-2.696875 4.041875 -3.83125 4.02125 -5 4 C-3 2 -3 2 0 0 Z " fill="#657FA1" transform="translate(373,161)"/>
<path d="M0 0 C2.475 0.495 2.475 0.495 5 1 C5 1.99 5 2.98 5 4 C3.68 4 2.36 4 1 4 C0.67 2.68 0.34 1.36 0 0 Z " fill="#6A8EB2" transform="translate(327,134)"/>
<path d="M0 0 C2.31 0.66 4.62 1.32 7 2 C7 2.99 7 3.98 7 5 C3.34683329 3.75023244 2.21934164 3.32901247 0 0 Z " fill="#7694B2" transform="translate(314,116)"/>
<path d="M0 0 C1.98 0 3.96 0 6 0 C6.33 0.99 6.66 1.98 7 3 C4.625 3.1875 4.625 3.1875 2 3 C1.34 2.01 0.68 1.02 0 0 Z " fill="#7F9AAF" transform="translate(263,68)"/>
<path d="" fill="#FFFFFF" transform="translate(0,0)"/>
<path d="" fill="#FFFFFF" transform="translate(0,0)"/>
<path d="" fill="#FFFFFF" transform="translate(0,0)"/>
<path d="" fill="#FFFFFF" transform="translate(0,0)"/>
<path d="" fill="#FFFFFF" transform="translate(0,0)"/>
<path d="" fill="#FFFFFF" transform="translate(0,0)"/>
<path d="" fill="#FFFFFF" transform="translate(0,0)"/>
<path d="" fill="#FFFFFF" transform="translate(0,0)"/>
<path d="" fill="#FFFFFF" transform="translate(0,0)"/>
<path d="" fill="#FFFFFF" transform="translate(0,0)"/>
<path d="" fill="#FFFFFF" transform="translate(0,0)"/>
<path d="" fill="#FFFFFF" transform="translate(0,0)"/>
<path d="" fill="#FFFFFF" transform="translate(0,0)"/>
<path d="" fill="#FFFFFF" transform="translate(0,0)"/>
<path d="" fill="#FFFFFF" transform="translate(0,0)"/>
<path d="" fill="#FFFFFF" transform="translate(0,0)"/>
<path d="" fill="#FFFFFF" transform="translate(0,0)"/>
<path d="" fill="#FFFFFF" transform="translate(0,0)"/>
<path d="" fill="#FFFFFF" transform="translate(0,0)"/>
<path d="" fill="#FFFFFF" transform="translate(0,0)"/>
</svg>
