<?xml version="1.0" encoding="UTF-8"?>
<svg version="1.1" xmlns="http://www.w3.org/2000/svg" width="571" height="571">
<path d="M0 0 C1.22161835 -0.03220139 2.44323669 -0.06440277 3.70187378 -0.09757996 C8.5406406 -0.19389638 13.37931357 -0.2743657 18.21874809 -0.32803631 C21.88966214 -0.36906355 25.55791911 -0.42958107 29.22753906 -0.53710938 C32.7856447 -0.64099117 36.34138022 -0.69545075 39.90091324 -0.71549416 C41.90782771 -0.73910123 43.9139611 -0.81232936 45.91964722 -0.88639832 C49.53050836 -0.87912797 52.49397344 -0.78080863 55.94970703 0.2722168 C58.87976582 3.26475727 60.34842445 6.4454369 61.94970703 10.2722168 C62.7403791 11.58703555 63.55322453 12.88922006 64.40283203 14.16674805 C67.65352774 19.34315589 70.67557723 24.6488012 73.69970703 29.9597168 C74.28880859 30.9787207 74.87791016 31.99772461 75.48486328 33.04760742 C76.32597656 34.52583984 76.32597656 34.52583984 77.18408203 36.03393555 C77.69165039 36.92040771 78.19921875 37.80687988 78.72216797 38.72021484 C79.94674375 41.26605625 80.53067921 43.48943425 80.94970703 46.2722168 C82.43470703 46.7672168 82.43470703 46.7672168 83.94970703 47.2722168 C85.25358851 49.59539092 86.40726854 51.85798559 87.51220703 54.2722168 C89.36009454 59.03071824 89.36009454 59.03071824 92.94970703 62.2722168 C93.23845703 61.3647168 93.52720703 60.4572168 93.82470703 59.5222168 C96.06211579 53.05859149 96.06211579 53.05859149 98.28564453 51.08862305 C100.64957231 48.50827934 102.06323352 45.49176254 103.63720703 42.3972168 C107.41861793 35.13116619 111.59270773 28.21080612 115.94970703 21.2722168 C119.60126544 15.37817194 122.95712233 9.45424526 125.96923828 3.20581055 C126.94970703 1.2722168 126.94970703 1.2722168 127.94970703 0.2722168 C130.54330025 0.18370151 133.11010394 0.15695735 135.70361328 0.17456055 C136.47905991 0.17597549 137.25450653 0.17739044 138.05345154 0.17884827 C140.53974197 0.18446334 143.02594363 0.19701833 145.51220703 0.2097168 C147.19384636 0.21472986 148.87548709 0.2192931 150.55712891 0.22338867 C154.68802269 0.23443767 158.81884979 0.25171235 162.94970703 0.2722168 C163.32780518 0.97830078 163.70590332 1.68438477 164.09545898 2.41186523 C165.81430869 5.61715234 167.5381986 8.81970166 169.26220703 12.0222168 C170.15456055 13.68897461 170.15456055 13.68897461 171.06494141 15.3894043 C171.64179688 16.45932617 172.21865234 17.52924805 172.81298828 18.6315918 C173.34190674 19.61611328 173.8708252 20.60063477 174.41577148 21.61499023 C175.86471779 24.27081291 175.86471779 24.27081291 177.6652832 26.45288086 C178.94970703 28.2722168 178.94970703 28.2722168 178.63720703 31.0222168 C178.29689453 32.1359668 178.29689453 32.1359668 177.94970703 33.2722168 C177.28970703 33.2722168 176.62970703 33.2722168 175.94970703 33.2722168 C175.69447266 33.9528418 175.43923828 34.6334668 175.17626953 35.3347168 C173.74817157 38.75487496 172.07305202 42.00866758 170.32470703 45.2722168 C169.97061768 45.93519775 169.61652832 46.59817871 169.25170898 47.28125 C166.42439926 52.51587281 163.33684932 57.55314245 160.16845703 62.58862305 C156.77700072 68.1044499 153.76419042 73.8467279 150.71801758 79.55810547 C150.27240479 80.38415283 149.82679199 81.2102002 149.36767578 82.0612793 C148.97346436 82.80071777 148.57925293 83.54015625 148.1730957 84.30200195 C146.94836488 86.27437828 145.60706836 87.66226509 143.94970703 89.2722168 C142.97827629 91.05596463 142.06783728 92.87347501 141.19970703 94.7097168 C136.7126599 103.91762742 131.43432563 112.62978748 125.94970703 121.2722168 C126.25263672 121.74530273 126.55556641 122.21838867 126.86767578 122.70581055 C129.55174498 126.94251054 132.07956075 131.22903194 134.48095703 135.6315918 C135.64366852 137.72199863 136.83181813 139.78839202 138.04345703 141.8503418 C138.40914795 142.47666504 138.77483887 143.10298828 139.15161133 143.74829102 C139.88234152 144.99771275 140.61805729 146.24423421 141.35913086 147.48754883 C143.00198656 150.30917223 143.94970703 151.94762667 143.94970703 155.2722168 C144.60970703 155.2722168 145.26970703 155.2722168 145.94970703 155.2722168 C147.46533203 157.51049805 147.46533203 157.51049805 149.19970703 160.5847168 C149.81974609 161.6778418 150.43978516 162.7709668 151.07861328 163.8972168 C153.27189915 167.85337335 155.45512707 171.81381715 157.59423828 175.79956055 C158.77864064 177.9601562 160.03364408 180.04980576 161.32470703 182.1472168 C162.93554119 185.2449748 163.36420758 186.85258725 162.94970703 190.2722168 C161.95970703 190.6022168 160.96970703 190.9322168 159.94970703 191.2722168 C159.26491282 193.26608272 158.60380713 195.26807172 157.94970703 197.2722168 C156.21914307 200.63492402 154.29775291 203.88416895 152.38720703 207.1472168 C151.30081578 209.02455846 150.21488279 210.90216538 149.12939453 212.7800293 C148.5915332 213.7071875 148.05367187 214.6343457 147.49951172 215.58959961 C145.30743772 219.38394573 143.15512001 223.19994844 141.01220703 227.0222168 C140.64933594 227.66852051 140.28646484 228.31482422 139.91259766 228.98071289 C137.24448154 233.73686587 134.58798779 238.49944759 131.94970703 243.2722168 C130.62970703 243.2722168 129.30970703 243.2722168 127.94970703 243.2722168 C127.58731934 242.59231689 127.22493164 241.91241699 126.8515625 241.21191406 C125.18069294 238.08361882 123.50275407 234.95916743 121.82470703 231.8347168 C121.25494141 230.76543945 120.68517578 229.69616211 120.09814453 228.59448242 C117.08507148 222.99632965 113.94098269 217.63455814 110.34716797 212.39208984 C108.02097654 208.86338261 106.08174107 205.14571616 104.13720703 201.3972168 C103.54649414 200.27959961 103.54649414 200.27959961 102.94384766 199.1394043 C101.39661673 196.18825372 100.00624171 193.44182084 98.94970703 190.2722168 C98.28970703 190.2722168 97.62970703 190.2722168 96.94970703 190.2722168 C96.58619141 189.53358398 96.22267578 188.79495117 95.84814453 188.03393555 C92.78566583 181.85401059 89.62165369 175.76012172 86.24658203 169.74487305 C84.9658501 167.30299561 83.9268488 164.84873684 82.94970703 162.2722168 C82.28970703 162.2722168 81.62970703 162.2722168 80.94970703 162.2722168 C80.66772461 161.73330811 80.38574219 161.19439941 80.09521484 160.63916016 C78.79805745 158.16197199 77.49889619 155.68583995 76.19970703 153.2097168 C75.75626953 152.3621582 75.31283203 151.51459961 74.85595703 150.64135742 C72.84394789 146.80966354 70.8155014 143.00714025 68.62158203 139.27612305 C66.94970703 136.2722168 66.94970703 136.2722168 66.94970703 134.2722168 C66.28970703 134.2722168 65.62970703 134.2722168 64.94970703 134.2722168 C64.55702637 133.53173096 64.1643457 132.79124512 63.75976562 132.02832031 C62.2762185 129.23626108 60.78841321 126.44652306 59.29785156 123.65820312 C58.3465548 121.87565533 57.40002677 120.0905652 56.45361328 118.30541992 C53.32172152 112.45372742 50.09070281 106.82438426 46.32958984 101.35693359 C44.00412725 97.84364182 42.07555859 94.13379811 40.13720703 90.3972168 C39.54649414 89.27959961 39.54649414 89.27959961 38.94384766 88.1394043 C37.39661673 85.18825372 36.00624171 82.44182084 34.94970703 79.2722168 C34.28970703 79.2722168 33.62970703 79.2722168 32.94970703 79.2722168 C32.66772461 78.73330811 32.38574219 78.19439941 32.09521484 77.63916016 C30.79805745 75.16197199 29.49889619 72.68583995 28.19970703 70.2097168 C27.75626953 69.3621582 27.31283203 68.51459961 26.85595703 67.64135742 C24.84394789 63.80966354 22.8155014 60.00714025 20.62158203 56.27612305 C18.94970703 53.2722168 18.94970703 53.2722168 18.94970703 51.2722168 C18.28970703 51.2722168 17.62970703 51.2722168 16.94970703 51.2722168 C16.66248779 50.72283447 16.37526855 50.17345215 16.0793457 49.60742188 C14.76684306 47.09904236 13.45204637 44.5918722 12.13720703 42.0847168 C11.68539063 41.22040039 11.23357422 40.35608398 10.76806641 39.46557617 C8.95800264 36.01720651 7.15538267 32.60913727 5.12548828 29.28393555 C3.94970703 27.2722168 3.94970703 27.2722168 3.94970703 25.2722168 C3.28970703 25.2722168 2.62970703 25.2722168 1.94970703 25.2722168 C-0.05707697 21.65093236 -2.05455777 18.02460036 -4.05029297 14.3972168 C-4.62263672 13.36467773 -5.19498047 12.33213867 -5.78466797 11.26831055 C-6.32607422 10.28217773 -6.86748047 9.29604492 -7.42529297 8.2800293 C-7.92802734 7.36882324 -8.43076172 6.45761719 -8.94873047 5.51879883 C-10.05029297 3.2722168 -10.05029297 3.2722168 -10.05029297 1.2722168 C-6.67232257 0.26626236 -3.51650094 0.09144834 0 0 Z " fill="#80A0C1" transform="translate(267.05029296875,36.727783203125)"/>
<path d="M0 0 C2.23046875 0.015625 2.23046875 0.015625 5 1 C6.82950332 3.38017669 8.03065669 6.04530193 9.3125 8.75 C10.10058836 10.32601317 10.89229292 11.90022295 11.6875 13.47265625 C12.27337891 14.63885498 12.27337891 14.63885498 12.87109375 15.82861328 C14.37111141 18.71381161 16.06505964 21.44620293 17.8125 24.1875 C22.08407965 30.95868137 25.85478266 37.98044141 29.61254883 45.04760742 C32.35821603 50.16693634 35.28937337 55.01504201 38.56298828 59.81201172 C40.91316627 63.39038331 42.89622099 67.14484023 44.875 70.9375 C45.2771875 71.69095703 45.679375 72.44441406 46.09375 73.22070312 C49 78.7415896 49 78.7415896 49 81 C49.66 81 50.32 81 51 81 C53.157219 84.72268998 55.29873616 88.45418135 57.4375 92.1875 C58.35499023 93.77014648 58.35499023 93.77014648 59.29101562 95.38476562 C59.87431641 96.40634766 60.45761719 97.42792969 61.05859375 98.48046875 C61.59798584 99.41785889 62.13737793 100.35524902 62.69311523 101.32104492 C63.96366949 103.92552687 64.58125238 106.14572569 65 109 C65.66 109 66.32 109 67 109 C68.296875 110.80078125 68.296875 110.80078125 69.75 113.3125 C70.28367187 114.23160156 70.81734375 115.15070313 71.3671875 116.09765625 C73.40891586 119.72685284 75.40466647 123.37878633 77.3828125 127.04296875 C79.1314937 130.24043656 80.934814 133.40232678 82.75 136.5625 C86.02589559 142.27713583 89.27741489 148.0051179 92.5 153.75 C92.94569336 154.53705322 93.39138672 155.32410645 93.85058594 156.13500977 C94.46595215 157.23607056 94.46595215 157.23607056 95.09375 158.359375 C95.46177734 159.01389648 95.82980469 159.66841797 96.20898438 160.34277344 C97 162 97 162 97 164 C97.66 164 98.32 164 99 164 C99.3623877 164.6798999 99.72477539 165.3597998 100.09814453 166.06030273 C101.76901409 169.18859797 103.44695296 172.31304937 105.125 175.4375 C105.69476563 176.50677734 106.26453125 177.57605469 106.8515625 178.67773438 C109.85620035 184.26021493 112.98368587 189.62014771 116.56689453 194.84887695 C119.04667186 198.57107764 121.20741077 202.46548106 123.375 206.375 C124.04982422 207.56416016 124.04982422 207.56416016 124.73828125 208.77734375 C125.16238281 209.53917969 125.58648437 210.30101562 126.0234375 211.0859375 C126.40419434 211.7670459 126.78495117 212.4481543 127.17724609 213.14990234 C128 215 128 215 128 218 C128.66 218 129.32 218 130 218 C142 235.59193955 142 235.59193955 142 242 C138.56942091 243.04644 135.43123127 243.12079519 131.85449219 243.11352539 C130.61350769 243.11344986 129.37252319 243.11337433 128.09393311 243.11329651 C126.74491333 243.10819031 125.39589396 243.10297432 124.046875 243.09765625 C122.66253714 243.09579024 121.27819862 243.0943672 119.89385986 243.09336853 C116.25738692 243.08955773 112.62095418 243.07973975 108.98449707 243.06866455 C105.27092024 243.0584195 101.5573369 243.05386429 97.84375 243.04882812 C90.56248171 243.03811616 83.2812465 243.02105704 76 243 C75.59406616 242.24944336 75.18813232 241.49888672 74.76989746 240.72558594 C74.23417114 239.73848633 73.69844482 238.75138672 73.14648438 237.734375 C72.61680054 236.75694336 72.0871167 235.77951172 71.54138184 234.77246094 C69.6667261 231.40054511 67.63289983 228.21480554 65.5 225 C60.62900396 217.55240657 56.3914181 209.87949925 52.5 201.875 C50.43683176 197.6821097 48.00818387 193.89428485 45.359375 190.05078125 C43.64117206 187.45866475 42.30175187 184.82046238 41 182 C37.9107034 184.70192399 35.99609053 188.06630061 33.9375 191.5625 C33.54828369 192.21653809 33.15906738 192.87057617 32.75805664 193.54443359 C29.27517955 199.44002614 25.96831969 205.42968307 22.6706543 211.43017578 C19.55558982 217.07262546 16.24611498 222.54917852 12.82421875 228.01171875 C10.44173354 231.91450502 8.27081456 235.9144314 6.12890625 239.953125 C5 242 5 242 4 243 C1.59850073 243.13803908 -0.77225199 243.21306598 -3.17578125 243.23828125 C-3.89734909 243.246353 -4.61891693 243.25442474 -5.36235046 243.26274109 C-6.89315376 243.27659671 -8.42398814 243.28731224 -9.95483398 243.29516602 C-12.2927547 243.31235483 -14.62925237 243.35622083 -16.96679688 243.40039062 C-18.45311458 243.41051949 -19.93944434 243.41903499 -21.42578125 243.42578125 C-22.12383377 243.44328934 -22.82188629 243.46079742 -23.54109192 243.47883606 C-26.85247707 243.46409421 -28.66443206 243.25579804 -31.33032227 241.22363281 C-32.85847221 239.18848298 -34.13274736 237.25961725 -35.2890625 234.99609375 C-35.67320312 234.25552734 -36.05734375 233.51496094 -36.453125 232.75195312 C-37.03320312 231.60629883 -37.03320312 231.60629883 -37.625 230.4375 C-38.40751042 228.91467335 -39.19131498 227.39251082 -39.9765625 225.87109375 C-40.31768066 225.20005615 -40.65879883 224.52901855 -41.01025391 223.83764648 C-42.09198826 221.76037921 -42.09198826 221.76037921 -44 219 C-44 218.01 -44 217.02 -44 216 C-44.66 216 -45.32 216 -46 216 C-46.33 215.01 -46.66 214.02 -47 213 C-46.505 212.01 -46.505 212.01 -46 211 C-45.34 211 -44.68 211 -44 211 C-43.76539063 210.18660156 -43.53078125 209.37320313 -43.2890625 208.53515625 C-41.71947583 204.23068371 -39.62832936 200.41625277 -37.375 196.4375 C-36.70513062 195.24278076 -36.70513062 195.24278076 -36.02172852 194.02392578 C-32.82793147 188.36517109 -29.47555507 182.83148468 -26.02734375 177.32421875 C-22.16481848 170.99086806 -18.5972008 164.48661904 -15 158 C-14.34 158 -13.68 158 -13 158 C-12.62488281 156.72769531 -12.62488281 156.72769531 -12.2421875 155.4296875 C-10.90373351 151.73420761 -9.12674591 148.48560207 -7.125 145.125 C-4.22552938 140.16365447 -1.48712883 135.18151841 1 130 C1.66 130 2.32 130 3 130 C3.69040574 128.34302621 4.3530635 126.6744239 5 125 C5.268125 124.34 5.53625 123.68 5.8125 123 C6.09137448 120.02533884 4.60012564 118.43219097 3 116 C3 115.34 3 114.68 3 114 C2.34 114 1.68 114 1 114 C0.40832031 112.87722656 -0.18335938 111.75445312 -0.79296875 110.59765625 C-1.59097556 109.08584761 -2.38916433 107.574135 -3.1875 106.0625 C-3.59734131 105.28575928 -4.00718262 104.50901855 -4.42944336 103.70874023 C-6.94822076 98.94761839 -9.51565195 94.22391196 -12.22265625 89.56640625 C-13 88 -13 88 -13 86 C-13.66 86 -14.32 86 -15 86 C-15.37809814 85.29391602 -15.75619629 84.58783203 -16.14575195 83.86035156 C-17.86460166 80.65506446 -19.58849157 77.45251514 -21.3125 74.25 C-21.90740234 73.13882813 -22.50230469 72.02765625 -23.11523438 70.8828125 C-23.69208984 69.81289063 -24.26894531 68.74296875 -24.86328125 67.640625 C-25.39219971 66.65610352 -25.92111816 65.67158203 -26.46606445 64.65722656 C-27.91823602 62.00240362 -27.91823602 62.00240362 -29.70581055 59.80249023 C-31 58 -31 58 -30.84375 55.51953125 C-29.98176157 52.94553802 -28.96066665 50.97182035 -27.5 48.6875 C-24.57485149 43.98585886 -21.82761994 39.2065202 -19.125 34.375 C-18.71958984 33.65143311 -18.31417969 32.92786621 -17.89648438 32.18237305 C-16.92977152 30.45559672 -15.96470714 28.72789767 -15 27 C-14.34 27 -13.68 27 -13 27 C-12.89042969 26.26910156 -12.78085938 25.53820312 -12.66796875 24.78515625 C-11.96090494 21.83698962 -10.9482978 19.97491864 -9.3125 17.4375 C-5.8090044 11.81324435 -2.88730092 5.95889764 0 0 Z " fill="#4E5B58" transform="translate(172,291)"/>
<path d="M0 0 C1.890625 0.31640625 1.890625 0.31640625 4 1 C7 6.03571429 7 6.03571429 7 9 C7.66 9 8.32 9 9 9 C12.98020433 14.48591212 15.92914423 20.72815939 18.90625 26.796875 C21.09231015 31.69745325 21.09231015 31.69745325 25 35 C26.01768347 36.84346091 26.96547811 38.72584289 27.875 40.625 C29.59166235 44.18064216 31.31821356 47.60719274 33.4375 50.9375 C35.30516146 54.59811647 35.1847104 55.1627964 34 59 C32.59620982 62.00276564 31.02864355 64.90555626 29.4375 67.8125 C29.01275391 68.60076172 28.58800781 69.38902344 28.15039062 70.20117188 C27.10603446 72.1373378 26.0557923 74.07005367 25 76 C24.34 76 23.68 76 23 76 C22.57460938 77.09441406 22.57460938 77.09441406 22.140625 78.2109375 C18.5580884 86.97097562 14.18668578 96.99012894 8.10766602 104.2644043 C5.87688061 107.15979992 4.33918969 110.02576678 2.75 113.3125 C2.22921875 114.38113281 1.7084375 115.44976562 1.171875 116.55078125 C0.59179688 117.76314453 0.59179688 117.76314453 0 119 C0.89456406 118.97699829 1.78912811 118.95399658 2.71080017 118.93029785 C11.17001298 118.72713155 19.62612328 118.60174765 28.08774471 118.56215668 C32.43789965 118.53909984 36.78346025 118.48674537 41.13208008 118.36572266 C45.33511649 118.24985761 49.53229189 118.213194 53.73681831 118.2297821 C55.33463351 118.22248462 56.93258694 118.18735792 58.52912712 118.12312317 C63.76909371 117.9237165 68.087921 118.03723534 73 120 C76.89590687 123.97229192 79.0643515 129.03949614 81.17953682 134.11314392 C82.25755267 136.59230546 83.61495623 138.84580181 85.0625 141.125 C87.14649511 144.50710653 87.40335805 147.03613574 87 151 C85.6796875 153.7890625 85.6796875 153.7890625 83.875 156.625 C80.67228803 161.82209853 77.89798194 167.09791167 75.26171875 172.6015625 C74 175 74 175 72 177 C70.08284569 177.24609566 70.08284569 177.24609566 67.69735718 177.24050903 C66.79429337 177.24325836 65.89122955 177.24600769 64.96080017 177.24884033 C63.47079247 177.2380545 63.47079247 177.2380545 61.95068359 177.22705078 C60.38479744 177.22748886 60.38479744 177.22748886 58.78727722 177.22793579 C55.32424715 177.22653842 51.86143016 177.21095797 48.3984375 177.1953125 C46.0023307 177.19158382 43.60622239 177.18873617 41.21011353 177.18673706 C34.89387831 177.17908918 28.57773462 177.15943077 22.26153564 177.1373291 C15.82020303 177.11689552 9.37885567 177.10774067 2.9375 177.09765625 C-9.70837245 177.07618598 -22.35418137 177.04241887 -35 177 C-35.46019531 178.41152344 -35.46019531 178.41152344 -35.9296875 179.8515625 C-36.79387001 182.39364681 -37.73203535 184.64520851 -39 187 C-39.66 187 -40.32 187 -41 187 C-41.24363281 187.65742188 -41.48726563 188.31484375 -41.73828125 188.9921875 C-43.3452074 192.82294025 -45.24123624 196.4573542 -47.1875 200.125 C-47.79295654 201.26811646 -47.79295654 201.26811646 -48.41064453 202.43432617 C-51.06731762 207.39495615 -53.93510523 212.13063592 -57.03515625 216.828125 C-60.34802427 222.17613461 -63.29160976 227.73256327 -66.26904297 233.27270508 C-66.7229541 234.11212646 -67.17686523 234.95154785 -67.64453125 235.81640625 C-68.05034424 236.57381104 -68.45615723 237.33121582 -68.87426758 238.11157227 C-70 240 -70 240 -72 242 C-74.78408813 242.24050903 -74.78408813 242.24050903 -78.37744141 242.22705078 C-79.03122269 242.22734283 -79.68500397 242.22763489 -80.3585968 242.22793579 C-82.52305296 242.22654065 -84.68716636 242.2109712 -86.8515625 242.1953125 C-88.35085868 242.19158302 -89.8501573 242.18873574 -91.34945679 242.18673706 C-95.29836743 242.17909548 -99.24713129 242.1594426 -103.19598389 242.1373291 C-107.22438572 242.1168819 -111.25281124 242.10773776 -115.28125 242.09765625 C-123.18756741 242.07619711 -131.09376545 242.04205495 -139 242 C-133.64944417 231.26380878 -127.75032694 220.84120634 -121.53515625 210.58203125 C-120.04456051 208.07494784 -118.6145069 205.53896804 -117.19702148 202.98999023 C-112.53218827 194.60263923 -107.66196912 186.34782075 -102.7487793 178.10400391 C-98.83722118 171.5064592 -95.16594717 164.82895203 -91.68359375 157.99609375 C-90.02422146 155.04310408 -88.13286845 152.62147378 -86 150 C-85.01886674 148.35864033 -84.08162433 146.69033302 -83.1875 145 C-82.68347656 144.05511719 -82.17945313 143.11023438 -81.66015625 142.13671875 C-81.11230469 141.10160156 -80.56445312 140.06648437 -80 139 C-79.0300602 137.1947101 -78.05681176 135.39123044 -77.08325195 133.58789062 C-75.71900356 131.06029461 -74.35958139 128.53010857 -73 126 C-72.34 126 -71.68 126 -71 126 C-70.773125 125.19820313 -70.54625 124.39640625 -70.3125 123.5703125 C-68.65144097 119.05183644 -66.38225888 115.04735626 -64 110.875 C-63.10348438 109.28944809 -62.20762774 107.70352335 -61.3125 106.1171875 C-60.91675781 105.42222168 -60.52101563 104.72725586 -60.11328125 104.01123047 C-59.0181208 102.03273666 -57.99639475 100.0297562 -57 98 C-56.34 98 -55.68 98 -55 98 C-54.78214844 97.22269531 -54.56429687 96.44539063 -54.33984375 95.64453125 C-52.53211609 90.72730121 -50.08292109 86.27157747 -47.5625 81.6875 C-47.07201172 80.76904297 -46.58152344 79.85058594 -46.07617188 78.90429688 C-45.35977539 77.5962207 -45.35977539 77.5962207 -44.62890625 76.26171875 C-44.19650635 75.46725342 -43.76410645 74.67278809 -43.31860352 73.85424805 C-42 72 -42 72 -39 71 C-38.90074219 70.29101562 -38.80148437 69.58203125 -38.69921875 68.8515625 C-37.89376853 65.56676552 -36.57337083 63.259252 -34.8125 60.375 C-31.38256957 54.66317371 -28.15354557 48.86813609 -25 43 C-24.34 43 -23.68 43 -23 43 C-22.62488281 41.46666016 -22.62488281 41.46666016 -22.2421875 39.90234375 C-21.13263832 36.02477161 -19.32472168 32.95339172 -17.125 29.5625 C-14.10273871 24.82757843 -11.39270952 20.08450774 -9 15 C-8.34 15 -7.68 15 -7 15 C-6.6596875 13.7934375 -6.6596875 13.7934375 -6.3125 12.5625 C-4.66368412 8.08714261 -2.39455588 4.11278682 0 0 Z " fill="#E57D80" transform="translate(484,137)"/>
<path d="M0 0 C22.11 0 44.22 0 67 0 C65 5 65 5 64 7 C63.34 7 62.68 7 62 7 C61.76152344 7.825 61.52304688 8.65 61.27734375 9.5 C59.77251477 13.62332344 57.76385008 17.21609615 55.5625 21 C52.90637065 25.6103126 50.32729949 30.21070201 48 35 C47.34 35 46.68 35 46 35 C45.71898437 35.72058594 45.43796875 36.44117188 45.1484375 37.18359375 C41.26131716 46.71629364 36.02503046 55.41437056 30.69287109 64.18676758 C25.55607376 72.66144334 20.74770792 81.30287133 16 90 C15.34 90 14.68 90 14 90 C13.73960937 90.86882812 13.47921875 91.73765625 13.2109375 92.6328125 C11.99224465 96.02156488 10.49163519 98.8019805 8.625 101.875 C5.86106016 106.5027239 3.3348647 111.14348143 1 116 C0.34 116 -0.32 116 -1 116 C-1.226875 116.80179687 -1.45375 117.60359375 -1.6875 118.4296875 C-3.34855903 122.94816356 -5.61774112 126.95264374 -8 131.125 C-8.89651562 132.71055191 -9.79237226 134.29647665 -10.6875 135.8828125 C-11.08324219 136.57777832 -11.47898438 137.27274414 -11.88671875 137.98876953 C-12.9818792 139.96726334 -14.00360525 141.9702438 -15 144 C-15.66 144 -16.32 144 -17 144 C-17.20367187 144.76570312 -17.40734375 145.53140625 -17.6171875 146.3203125 C-19.56425054 151.50148024 -22.33887803 156.10433176 -25.125 160.875 C-25.68832031 161.84953125 -26.25164062 162.8240625 -26.83203125 163.828125 C-28.21650363 166.22161962 -29.60593541 168.6120838 -31 171 C-31.66 171 -32.32 171 -33 171 C-33.09925781 171.70898438 -33.19851562 172.41796875 -33.30078125 173.1484375 C-34.10623147 176.43323448 -35.42662917 178.740748 -37.1875 181.625 C-40.61743043 187.33682629 -43.84645443 193.13186391 -47 199 C-47.66 199 -48.32 199 -49 199 C-49.37511719 200.27230469 -49.37511719 200.27230469 -49.7578125 201.5703125 C-51.09626649 205.26579239 -52.87325409 208.51439793 -54.875 211.875 C-57.77447062 216.83634553 -60.51287117 221.81848159 -63 227 C-63.66 227 -64.32 227 -65 227 C-65.226875 227.804375 -65.45375 228.60875 -65.6875 229.4375 C-67.33631588 233.91285739 -69.60544412 237.88721318 -72 242 C-73.890625 241.68359375 -73.890625 241.68359375 -76 241 C-79 235.96428571 -79 235.96428571 -79 233 C-79.66 233 -80.32 233 -81 233 C-82.33203125 231.1640625 -82.33203125 231.1640625 -83.8125 228.625 C-84.53373047 227.40683594 -84.53373047 227.40683594 -85.26953125 226.1640625 C-86.68495563 223.57604049 -87.99146999 220.97891754 -89.28125 218.328125 C-92.07214206 212.7022493 -95.33289871 207.42853726 -98.6875 202.125 C-99.83877078 200.29523335 -100.98857061 198.46454017 -102.13671875 196.6328125 C-102.89021606 195.44002686 -102.89021606 195.44002686 -103.65893555 194.22314453 C-107.02619021 188.64109083 -107.02619021 188.64109083 -106.91015625 185.80078125 C-105.56721582 181.6682135 -103.51927587 177.99080569 -101.4375 174.1875 C-101.01275391 173.39923828 -100.58800781 172.61097656 -100.15039062 171.79882812 C-99.10603446 169.8626622 -98.0557923 167.92994633 -97 166 C-96.34 166 -95.68 166 -95 166 C-94.76152344 165.34902344 -94.52304688 164.69804687 -94.27734375 164.02734375 C-92.60828644 160.07162689 -90.59483558 156.34152788 -88.5625 152.5625 C-87.77148128 151.08498543 -86.98110459 149.60712695 -86.19140625 148.12890625 C-85.62510498 147.07340576 -85.62510498 147.07340576 -85.04736328 145.99658203 C-84.12401524 144.23640948 -83.25844754 142.44618469 -82.40234375 140.65234375 C-81 138 -81 138 -79.64282227 136.75219727 C-77.30329722 134.25691249 -75.87544337 131.3241842 -74.3125 128.3125 C-73.99216797 127.70599609 -73.67183594 127.09949219 -73.34179688 126.47460938 C-72.55628516 124.98565434 -71.77747058 123.49316953 -71 122 C-71.91153336 122.02664734 -72.82306671 122.05329468 -73.76222229 122.08074951 C-82.36850077 122.32157079 -90.97364282 122.50406855 -99.58252048 122.62174606 C-104.00838392 122.68428496 -108.43145633 122.76902602 -112.85571289 122.90527344 C-117.12888195 123.03603867 -121.39937507 123.10747817 -125.67439079 123.13852692 C-127.30181981 123.16063785 -128.92910795 123.20382578 -130.55539131 123.26876068 C-135.6110976 123.46252725 -140.13051764 123.47723526 -145 122 C-148.46736078 118.39782158 -150.21495904 114.6242618 -152 110 C-152.63017761 108.81791568 -153.27819675 107.64471178 -153.9609375 106.4921875 C-154.42757812 105.62851562 -154.89421875 104.76484375 -155.375 103.875 C-156.09816406 102.54082031 -156.09816406 102.54082031 -156.8359375 101.1796875 C-158.83334199 97.4395811 -159.34490349 95.31651948 -159 91 C-157.6796875 88.2109375 -157.6796875 88.2109375 -155.875 85.375 C-152.67228803 80.17790147 -149.89798194 74.90208833 -147.26171875 69.3984375 C-146 67 -146 67 -144 65 C-142.08284569 64.75390434 -142.08284569 64.75390434 -139.69735718 64.75949097 C-138.34276146 64.75536697 -138.34276146 64.75536697 -136.96080017 64.75115967 C-135.47079247 64.7619455 -135.47079247 64.7619455 -133.95068359 64.77294922 C-132.90675949 64.77265717 -131.86283539 64.77236511 -130.78727722 64.77206421 C-127.32424715 64.77346158 -123.86143016 64.78904203 -120.3984375 64.8046875 C-118.0023307 64.80841618 -115.60622239 64.81126383 -113.21011353 64.81326294 C-106.89387831 64.82091082 -100.57773462 64.84056923 -94.26153564 64.8626709 C-87.82020303 64.88310448 -81.37885567 64.89225933 -74.9375 64.90234375 C-62.29162755 64.92381402 -49.64581863 64.95758113 -37 65 C-36.53980469 63.58847656 -36.53980469 63.58847656 -36.0703125 62.1484375 C-35.20612999 59.60635319 -34.26796465 57.35479149 -33 55 C-32.34 55 -31.68 55 -31 55 C-30.74476563 54.319375 -30.48953125 53.63875 -30.2265625 52.9375 C-28.79846454 49.51734183 -27.12334499 46.26354921 -25.375 43 C-25.02091064 42.33701904 -24.66682129 41.67403809 -24.30200195 40.9909668 C-21.47730275 35.76117724 -18.39085432 30.72922005 -15.23046875 25.6953125 C-10.49641907 17.99178242 -6.30557043 9.94792108 -2 2 C-1.34 2 -0.68 2 0 2 C0 1.34 0 0.68 0 0 Z " fill="#90C1BE" transform="translate(159,192)"/>
<path d="M0 0 C92.4 0 184.8 0 280 0 C279.21454252 3.92728739 278.87138108 5.62205517 277 8.8125 C276.55527344 9.58464844 276.11054688 10.35679687 275.65234375 11.15234375 C275.10707031 12.09207031 274.56179688 13.03179687 274 14 C272.51391842 16.62111466 271.03845599 19.24817356 269.5625 21.875 C268.98157593 22.90620972 268.98157593 22.90620972 268.38891602 23.95825195 C265.20746518 29.61082339 262.08314329 35.29316222 259 41 C258.34 41 257.68 41 257 41 C256.6596875 42.2065625 256.6596875 42.2065625 256.3125 43.4375 C254.64671704 47.95891088 252.47106783 53.52893217 249 57 C246.73079775 57.1241622 244.4577355 57.17803748 242.18530273 57.20532227 C241.47314606 57.21522186 240.76098938 57.22512146 240.0272522 57.23532104 C237.66273372 57.26702212 235.29819511 57.29172724 232.93359375 57.31640625 C231.29833948 57.33696836 229.66309062 57.35796463 228.02784729 57.37937927 C223.71571214 57.43467672 219.40352842 57.48405201 215.09130859 57.53222656 C210.69429176 57.58238572 206.2973458 57.63810087 201.90039062 57.69335938 C193.26698693 57.80103473 184.6335241 57.90245871 176 58 C176.33 59.32 176.66 60.64 177 62 C177.66 62 178.32 62 179 62 C179.39268066 62.74048584 179.78536133 63.48097168 180.18994141 64.24389648 C181.67348853 67.03595572 183.16129382 69.82569373 184.65185547 72.61401367 C185.60315223 74.39656146 186.54968026 76.1816516 187.49609375 77.96679688 C190.61675665 83.79750914 193.83742744 89.40081925 197.58447266 94.84838867 C200.13282378 98.72189996 202.24030987 102.8261255 204.375 106.9375 C205.04982422 108.21077148 205.04982422 108.21077148 205.73828125 109.50976562 C209 115.74073898 209 115.74073898 209 118 C209.99 118.33 210.98 118.66 212 119 C211.45319606 122.63278937 210.60981567 124.92728009 208.4375 127.875 C205.05879861 132.7134316 202.34789192 137.80938292 199.62866211 143.03466797 C197.08406552 147.91593448 197.08406552 147.91593448 196 149 C193.3337397 149.08855161 190.69352886 149.11524673 188.02734375 149.09765625 C187.22970108 149.0962413 186.43205841 149.09482635 185.61024475 149.09336853 C183.05262565 149.08775316 180.49509282 149.07519812 177.9375 149.0625 C176.20768355 149.05748698 174.47786574 149.05292373 172.74804688 149.04882812 C168.49866447 149.03777875 164.24934688 149.02050386 160 149 C159.6376123 148.3201001 159.27522461 147.6402002 158.90185547 146.93969727 C157.23098591 143.81140203 155.55304704 140.68695063 153.875 137.5625 C153.30523437 136.49322266 152.73546875 135.42394531 152.1484375 134.32226562 C149.13644081 128.72611269 145.99415006 123.36506461 142.40185547 118.12426758 C140.05745746 114.57174109 138.09223486 110.83303347 136.125 107.0625 C135.7228125 106.30904297 135.320625 105.55558594 134.90625 104.77929688 C132 99.2584104 132 99.2584104 132 97 C131.01 96.67 130.02 96.34 129 96 C127.38671875 93.2265625 127.38671875 93.2265625 125.6875 89.625 C125.07738768 88.35066703 124.46538 87.07723991 123.8515625 85.8046875 C123.54508789 85.1662793 123.23861328 84.52787109 122.92285156 83.87011719 C121.1144568 80.20548654 119.08022349 76.66378871 117.06640625 73.109375 C116 71 116 71 116 69 C115.34 69 114.68 69 114 69 C112.02 65.37 110.04 61.74 108 58 C107.06341049 58.01189865 106.12682098 58.0237973 105.16184998 58.03605652 C96.31939599 58.14118655 87.47827201 58.1881749 78.63517666 58.17878246 C74.08891424 58.17580797 69.54463094 58.19304968 64.9987793 58.25708008 C60.60832085 58.31816821 56.22072428 58.32538358 51.82997322 58.29583168 C50.1582255 58.29393347 48.48633901 58.31118984 46.81500053 58.34822655 C33.73191087 58.6196175 33.73191087 58.6196175 29.4602356 54.62490845 C27.63740345 51.80765971 26.28056708 49.09594805 25 46 C24.19371561 44.47586229 23.38198994 42.95457828 22.5625 41.4375 C21 38 21 38 21 36 C20.34 36 19.68 36 19 36 C17.00086459 32.3366907 15.00718702 28.67048184 13.01855469 25.00146484 C12.34101904 23.75325319 11.66198825 22.50585192 10.98144531 21.25927734 C10.00453499 19.46922446 9.03300652 17.67634352 8.0625 15.8828125 C7.47597656 14.80402832 6.88945312 13.72524414 6.28515625 12.61376953 C5 10 5 10 5 8 C4.34 8 3.68 8 3 8 C0.95830515 5.09451118 0 3.59857954 0 0 Z " fill="#5D81AC" transform="translate(234,384)"/>
<path d="M0 0 C1.65024002 -0.03659643 3.30018605 -0.09110658 4.94921875 -0.1640625 C18.5841141 -0.75825314 18.5841141 -0.75825314 22.62915039 2.37158203 C24.22538996 4.71591891 25.28609687 6.9263578 26.30053711 9.56982422 C26.92692648 10.78286178 27.5614654 11.99175162 28.20678711 13.19482422 C28.99569336 14.86544922 28.99569336 14.86544922 29.80053711 16.56982422 C31.68449202 20.4696057 33.60352573 24.2157321 36.11303711 27.75732422 C39.92711862 33.16919664 42.8008747 39.11333689 45.78613281 45.00805664 C46.19694092 45.80961182 46.60774902 46.61116699 47.03100586 47.43701172 C47.39605225 48.16001465 47.76109863 48.88301758 48.13720703 49.62792969 C49.32658756 51.61330906 50.64492603 52.96883066 52.30053711 54.56982422 C53.27364012 56.33147622 54.18376352 58.12849529 55.05053711 59.94482422 C57.85424225 65.72130214 60.87000832 71.33809042 63.98022461 76.95263672 C65.30053711 79.56982422 65.30053711 79.56982422 65.30053711 81.56982422 C66.29053711 81.89982422 67.28053711 82.22982422 68.30053711 82.56982422 C69.46850586 84.09326172 69.46850586 84.09326172 70.48803711 85.94482422 C70.8322168 86.55068359 71.17639648 87.15654297 71.53100586 87.78076172 C72.30053711 89.56982422 72.30053711 89.56982422 72.30053711 92.56982422 C73.24965469 92.54317688 74.19877228 92.51652954 75.176651 92.48907471 C84.13597455 92.24545875 93.094624 92.06577168 102.05651188 91.94807816 C106.66391919 91.8855306 111.26864702 91.80076935 115.87451172 91.66455078 C120.32273405 91.53382304 124.7683866 91.46235257 129.21838188 91.4312973 C130.91277995 91.40918024 132.60704219 91.36598115 134.30034065 91.30106354 C139.53257322 91.10851203 144.24816885 91.09194182 149.30053711 92.56982422 C152.83652152 96.15504691 154.52970474 99.90818749 156.30053711 104.56982422 C157.0976912 106.11948151 157.90793908 107.66256131 158.73803711 109.19482422 C160.30053711 112.56982422 160.30053711 112.56982422 160.30053711 114.56982422 C160.96053711 114.56982422 161.62053711 114.56982422 162.30053711 114.56982422 C162.6629248 115.24972412 163.0253125 115.92962402 163.39868164 116.63012695 C165.0695512 119.75842219 166.74749007 122.88287359 168.42553711 126.00732422 C168.99530273 127.07660156 169.56506836 128.14587891 170.15209961 129.24755859 C173.24700941 134.99776033 176.45389088 140.51561341 180.22973633 145.84741211 C181.30053711 147.56982422 181.30053711 147.56982422 181.30053711 149.56982422 C88.57053711 149.56982422 -4.15946289 149.56982422 -99.69946289 149.56982422 C-98.4058569 146.33580924 -97.14039176 143.33698432 -95.57446289 140.25732422 C-95.22125977 139.55994141 -94.86805664 138.86255859 -94.50415039 138.14404297 C-94.23860352 137.62455078 -93.97305664 137.10505859 -93.69946289 136.56982422 C-93.03946289 136.56982422 -92.37946289 136.56982422 -91.69946289 136.56982422 C-91.46098633 135.75642578 -91.22250977 134.94302734 -90.97680664 134.10498047 C-89.4355785 129.83950196 -87.41508175 125.99007235 -85.26196289 122.00732422 C-84.86686523 121.26546875 -84.47176758 120.52361328 -84.06469727 119.75927734 C-82.95643084 117.68842344 -81.83215441 115.62739809 -80.69946289 113.56982422 C-80.15161133 112.57080078 -79.60375977 111.57177734 -79.03930664 110.54248047 C-78.5971582 109.89150391 -78.15500977 109.24052734 -77.69946289 108.56982422 C-77.03946289 108.56982422 -76.37946289 108.56982422 -75.69946289 108.56982422 C-75.59633789 107.85310547 -75.49321289 107.13638672 -75.38696289 106.39794922 C-74.62143598 103.24884987 -73.40861332 101.06432539 -71.69946289 98.31982422 C-71.16321289 97.44841797 -70.62696289 96.57701172 -70.07446289 95.67919922 C-68.69946289 93.56982422 -68.69946289 93.56982422 -67.69946289 92.56982422 C-65.42954402 92.47542444 -63.15664322 92.45240195 -60.88476562 92.45629883 C-59.81653061 92.45607979 -59.81653061 92.45607979 -58.72671509 92.45585632 C-56.36213177 92.45655551 -53.99762628 92.46434816 -51.63305664 92.47216797 C-49.99780826 92.47403213 -48.36255932 92.47545604 -46.72731018 92.47645569 C-42.41511504 92.48028104 -38.10295337 92.49011147 -33.79077148 92.50115967 C-29.39380344 92.51137342 -24.99683 92.51595323 -20.59985352 92.52099609 C-11.96637458 92.53173373 -3.3329229 92.54881035 5.30053711 92.56982422 C4.64053711 90.58982422 3.98053711 88.60982422 3.30053711 86.56982422 C2.64053711 86.56982422 1.98053711 86.56982422 1.30053711 86.56982422 C0.90785645 85.82933838 0.51517578 85.08885254 0.1105957 84.32592773 C-1.37295143 81.5338685 -2.86075671 78.74413049 -4.35131836 75.95581055 C-5.30261512 74.17326275 -6.24914315 72.38817262 -7.19555664 70.60302734 C-10.32636654 64.75335622 -13.55561739 59.1247112 -17.31518555 53.65893555 C-19.65891641 50.12184472 -21.61342912 46.39097228 -23.57446289 42.63232422 C-24.17774414 41.50213867 -24.17774414 41.50213867 -24.79321289 40.34912109 C-27.69946289 34.82823461 -27.69946289 34.82823461 -27.69946289 32.56982422 C-28.35946289 32.56982422 -29.01946289 32.56982422 -29.69946289 32.56982422 C-30.8346023 29.21375989 -30.87727362 27.93334838 -29.29321289 24.69482422 C-28.60227539 23.66357422 -27.91133789 22.63232422 -27.19946289 21.56982422 C-26.45528737 20.43134304 -25.7144914 19.29064681 -24.97680664 18.14794922 C-24.59766113 17.56335938 -24.21851563 16.97876953 -23.82788086 16.37646484 C-21.34186018 12.39625 -19.22758239 8.20651648 -17.04711914 4.05419922 C-13.94209823 -1.66983932 -5.93844524 0.10241743 0 0 Z " fill="#DABB7F" transform="translate(155.699462890625,36.43017578125)"/>
</svg>
